<?xml version="1.0" encoding="UTF-8" standalone="no"?>
<!DOCTYPE svg PUBLIC "-//W3C//DTD SVG 1.1//EN" "http://www.w3.org/Graphics/SVG/1.1/DTD/svg11.dtd">
<svg xmlns="http://www.w3.org/2000/svg" version="1.1" viewBox="0 0 662 675">
<path fill="#a874ad" d="
  M 53.94 167.19
  Q 84.65 136.74 126.92 125.06
  Q 127.57 124.88 131.11 124.08
  Q 133.86 123.46 135.19 122.69
  Q 137.02 121.62 137.76 119.15
  Q 138.52 116.61 138.54 116.54
  Q 153.20 78.25 183.02 50.87
  Q 190.45 44.05 198.54 38.30
  Q 229.71 16.19 268.00 9.73
  Q 273.12 8.87 278.23 7.88
  Q 292.16 5.19 307.44 7.31
  Q 319.98 9.05 326.79 10.29
  Q 338.71 12.45 350.08 16.65
  Q 389.05 31.05 417.70 61.33
  Q 419.13 62.85 421.17 62.41
  Q 443.66 57.60 466.99 59.86
  Q 532.65 66.21 576.31 113.44
  Q 605.22 144.71 615.57 187.84
  Q 626.19 232.07 612.72 275.33
  Q 612.07 277.42 613.50 279.08
  Q 643.39 313.68 651.93 358.26
  Q 653.89 368.48 655.56 378.74
  Q 656.84 386.58 656.00 394.50
  Q 655.35 400.60 652.56 416.51
  Q 645.53 456.63 621.63 488.82
  Q 615.69 496.82 608.72 504.09
  Q 575.60 538.60 528.66 550.85
  Q 524.88 551.83 523.43 553.23
  Q 521.77 554.83 521.09 557.17
  Q 520.21 560.17 520.18 560.26
  Q 506.27 596.66 477.68 623.17
  Q 442.44 655.84 395.10 664.99
  Q 389.32 666.11 383.53 667.15
  Q 371.00 669.38 358.43 668.59
  Q 350.38 668.09 338.61 666.02
  Q 281.76 656.05 241.81 613.95
  Q 239.94 611.97 237.26 612.50
  Q 225.08 614.88 212.74 615.65
  Q 202.67 616.27 192.77 615.42
  Q 150.36 611.80 114.34 588.39
  Q 77.49 564.45 57.44 525.31
  Q 46.70 504.35 42.13 481.22
  Q 33.92 439.62 46.50 399.24
  Q 47.03 397.56 45.87 396.23
  Q 16.82 363.10 7.75 319.75
  Q 6.00 311.38 3.97 296.25
  Q 2.61 286.13 3.64 276.12
  Q 4.26 270.16 6.80 256.36
  Q 16.35 204.46 53.94 167.19
  Z
  M 173.46 321.43
  Q 194.78 334.21 216.09 346.48
  Q 217.66 347.39 219.70 347.87
  C 219.99 347.94 220.28 347.79 220.39 347.52
  Q 221.18 345.58 221.17 343.75
  Q 221.00 262.00 221.02 180.25
  Q 221.03 171.57 226.43 165.56
  Q 228.28 163.51 232.07 161.03
  Q 235.10 159.04 238.24 157.23
  Q 303.79 119.47 369.28 81.61
  Q 370.76 80.75 371.19 79.84
  Q 371.97 78.15 370.11 76.94
  Q 368.92 76.17 368.81 76.09
  Q 332.71 48.74 288.00 51.75
  Q 244.04 54.71 211.95 84.06
  Q 204.55 90.82 198.37 98.70
  Q 171.85 132.49 172.00 175.75
  Q 172.24 247.50 172.00 318.83
  Q 172.00 320.55 173.46 321.43
  Z
  M 265.58 193.92
  Q 265.22 195.57 265.26 197.75
  Q 265.60 216.15 265.52 234.55
  Q 265.51 234.85 265.29 240.44
  Q 265.17 243.49 265.46 246.35
  Q 265.66 248.36 267.53 247.59
  Q 270.33 246.44 272.75 245.03
  Q 338.79 206.75 404.91 168.60
  Q 411.12 165.01 415.06 163.31
  Q 423.10 159.85 431.33 163.90
  Q 434.96 165.69 441.69 169.56
  Q 505.28 206.18 568.68 243.12
  Q 570.65 244.26 572.75 244.92
  Q 574.69 245.53 575.00 243.52
  Q 580.99 204.14 563.06 170.09
  Q 558.22 160.90 552.56 153.09
  Q 545.24 143.01 535.79 134.72
  Q 498.47 101.95 449.48 103.16
  Q 439.41 103.41 429.65 105.48
  Q 407.93 110.08 388.53 121.30
  Q 327.88 156.36 267.30 191.57
  C 266.42 192.08 265.80 192.93 265.58 193.92
  Z
  M 126.04 171.78
  Q 124.98 171.46 123.47 172.10
  Q 84.98 188.38 64.59 224.80
  Q 42.74 263.85 50.21 307.22
  Q 51.92 317.14 55.26 326.54
  Q 67.37 360.52 95.81 382.82
  Q 100.77 386.70 108.68 391.51
  Q 115.33 395.54 122.07 399.44
  Q 178.06 431.80 234.00 464.25
  Q 236.50 465.70 238.35 464.43
  Q 239.25 463.81 239.33 463.77
  Q 261.30 451.24 281.97 438.96
  Q 285.07 437.12 281.95 435.32
  Q 210.51 393.99 139.15 352.54
  Q 127.88 345.99 127.75 333.00
  Q 127.40 299.10 127.52 248.50
  Q 127.61 211.53 127.94 174.35
  Q 127.96 172.36 126.04 171.78
  Z
  M 581.31 309.44
  Q 565.90 291.46 544.59 279.59
  Q 537.67 275.74 537.59 275.69
  Q 481.01 243.12 423.86 210.13
  C 423.17 209.73 422.33 209.73 421.64 210.13
  L 375.99 236.36
  C 375.41 236.69 375.27 237.46 375.69 237.98
  Q 377.13 239.74 379.31 240.88
  Q 380.97 241.76 381.02 241.79
  Q 446.46 279.54 511.81 317.45
  Q 518.95 321.59 521.44 323.31
  Q 531.25 330.10 531.25 342.00
  Q 531.25 421.25 531.25 500.63
  Q 531.25 504.27 534.62 502.90
  Q 577.74 485.37 598.46 442.73
  Q 614.91 408.88 609.75 372.75
  Q 604.59 336.58 581.31 309.44
  Z
  M 267.02 375.36
  L 328.03 410.71
  Q 329.56 411.59 331.09 410.70
  Q 360.35 393.74 390.01 376.58
  Q 390.06 376.55 391.40 375.88
  Q 393.76 374.69 393.75 372.25
  Q 393.58 338.91 393.75 305.57
  Q 393.75 305.51 393.85 303.94
  Q 394.05 300.79 391.31 299.19
  Q 360.97 281.46 330.43 264.06
  C 329.85 263.73 329.15 263.73 328.58 264.06
  Q 298.57 281.14 268.79 298.58
  Q 268.72 298.63 267.55 299.21
  Q 265.17 300.41 265.38 303.12
  Q 265.50 304.80 265.50 304.89
  Q 265.50 338.33 265.50 372.71
  Q 265.50 374.48 267.02 375.36
  Z
  M 288.42 597.47
  Q 316.69 619.41 351.02 622.69
  Q 360.56 623.60 370.99 622.91
  Q 424.92 619.34 459.19 577.94
  Q 479.15 553.81 484.87 521.91
  Q 486.37 513.49 486.72 502.51
  Q 486.97 494.42 487.00 483.00
  Q 487.16 424.49 486.77 365.98
  Q 486.76 364.37 486.98 361.04
  Q 487.15 358.38 486.99 356.07
  Q 486.86 354.21 485.24 353.27
  Q 464.04 340.96 444.20 329.45
  Q 444.13 329.41 442.48 328.33
  Q 440.98 327.35 439.69 327.33
  C 438.90 327.31 438.25 327.95 438.25 328.74
  Q 438.25 410.87 438.25 490.75
  Q 438.25 492.73 438.17 494.09
  Q 438.09 495.41 437.89 497.41
  Q 437.19 504.64 432.42 509.71
  Q 430.59 511.66 426.58 514.20
  Q 423.47 516.18 420.27 518.03
  Q 353.94 556.38 288.69 593.72
  Q 285.76 595.40 288.42 597.47
  Z
  M 121.69 538.56
  Q 153.07 567.54 194.77 571.43
  Q 204.83 572.37 214.74 571.62
  Q 239.86 569.72 262.21 558.32
  Q 264.82 556.99 279.59 548.42
  Q 333.07 517.41 386.53 486.36
  Q 386.59 486.32 388.91 485.14
  Q 391.53 483.80 393.22 481.41
  C 393.40 481.16 393.50 480.84 393.50 480.50
  L 393.69 429.38
  Q 393.70 425.76 390.57 427.56
  Q 322.13 466.90 253.76 506.35
  Q 245.57 511.08 244.27 511.58
  Q 238.97 513.64 233.23 512.78
  Q 230.19 512.32 226.13 510.34
  Q 222.74 508.69 219.47 506.80
  Q 152.98 468.39 86.38 430.03
  Q 84.30 428.83 84.00 431.21
  Q 78.00 478.34 103.52 517.25
  Q 111.06 528.75 121.69 538.56
  Z"
/>
</svg>
