<svg width="1028" height="1122" viewBox="0 0 1028 1122" fill="none" xmlns="http://www.w3.org/2000/svg">
<path fill-rule="evenodd" clip-rule="evenodd" d="M715.147 244.612C726.207 334.736 735.617 422.991 683.54 503.12C641.212 568.242 573.623 600.323 497.174 600.568C431.471 600.777 365.767 600.594 300.063 600.603L325.055 589.699C383.382 589.699 441.719 589.682 500.046 589.673C541.666 589.673 580.842 588.582 619.294 570.817C687.503 539.321 731.165 472.095 745.341 399.762C756.253 344.085 747.026 289.193 740.2 233.612L715.147 244.603V244.612Z" stroke="url(#paint0_linear_120_1504)" stroke-width="0.516727" stroke-linecap="round" stroke-linejoin="round"/>
<path fill-rule="evenodd" clip-rule="evenodd" d="M964.345 689.417C952.098 589.926 940.095 490.401 927.613 390.936C920.28 332.51 891.832 275.401 833.933 252.634C797.419 238.274 753.494 244.673 715.139 244.612L740.191 233.621C807.335 233.735 869.303 227.284 915.776 284.322C964.781 344.46 959.753 437.194 968.735 510.156C975.649 566.296 982.553 622.444 989.467 678.584L964.336 689.426L964.345 689.417Z" stroke="url(#paint1_linear_120_1504)" stroke-width="0.516727" stroke-linecap="round" stroke-linejoin="round"/>
<path fill-rule="evenodd" clip-rule="evenodd" d="M490.889 943.822C471.668 887.848 462.118 828.06 454.437 769.458C447.174 714.052 428.695 626.783 500.064 608.416C555.493 594.152 614.213 605.229 669.084 586.784C723.265 568.574 768.36 530.574 800.788 483.871C819.852 456.408 834.343 426.038 845.516 394.559C856.916 362.434 861.49 322.366 882.064 294.684C885.041 292.092 887.93 289.412 890.75 286.645C959.011 246.087 991.134 376.716 1000.08 418.216C1011.78 472.47 1019.98 528.217 1024.45 583.554C1029.01 640.051 1029.31 709.6 967.085 734.322C916.055 754.601 850.081 747.25 796.284 745.068C735.748 742.606 671.965 733.152 612.965 749.747L607.204 753.588L606.933 753.675C605.004 754.828 602.988 755.945 600.98 756.975C599.662 758.791 598.073 760.345 596.232 761.61C595.009 763.548 593.761 765.478 592.478 767.372C555.799 822.578 593.683 906.835 569.503 967.663C567.155 971.155 564.816 974.646 562.485 978.147C559.421 980.652 556.174 982.922 552.77 984.956C521.537 998.923 502.874 966.406 490.889 943.831V943.822Z" stroke="url(#paint2_linear_120_1504)" stroke-width="0.516727" stroke-linecap="round" stroke-linejoin="round"/>
<path fill-rule="evenodd" clip-rule="evenodd" d="M483.12 1004.89C446.746 952.482 445.184 873.549 435.957 812.119C428.59 763.024 395.367 636.315 449.863 606.347C505.912 575.523 585.381 598.132 646.45 582.244C701.923 567.806 748.562 531.901 781.453 485.477C801.836 456.713 816.265 424.563 826.775 390.98C838.096 354.761 838.454 313.479 854.76 279.172C857.256 275.916 859.692 272.625 862.075 269.299C865.278 266.942 868.499 264.594 871.72 262.254C941.876 232.521 981.314 329.061 992.513 379.754C1006.04 440.992 1014.17 504.001 1021.21 566.304C1027.84 625.037 1040.64 707.26 980.38 743.435C930.659 773.29 851.722 761.968 796.179 760.729C734.142 759.341 669.198 752.008 608.077 764.133C605.999 765.294 603.817 766.22 601.547 766.9L600.072 768.149L595.717 769.895L592.365 773.849L591.457 774.408C590.671 776.407 589.554 778.214 588.114 779.803C573.021 810.147 582.326 856.946 584.168 889.498C586.184 925.167 596.93 981.787 571.965 1011.49C548.885 1034.31 503.145 1029.43 483.103 1004.9L483.12 1004.89Z" stroke="url(#paint3_linear_120_1504)" stroke-width="0.516727" stroke-linecap="round" stroke-linejoin="round"/>
<path fill-rule="evenodd" clip-rule="evenodd" d="M448.143 1001.35C421.389 904.949 410.425 799.61 402.429 699.971C400.203 672.185 395.106 637.162 409.264 611.794C411.743 608.747 414.44 605.91 417.365 603.291C451.198 582.026 502.176 586.932 540.462 586.164C579.646 585.37 618.77 584.863 656.113 571.699C729.716 545.755 781.602 479.087 805.004 406.449C819.678 360.907 816.649 311.847 831.392 267.003C833.653 263.467 835.905 259.923 838.166 256.388C841.265 253.987 844.364 251.595 847.471 249.203C925.256 214.652 976.365 309.018 988.411 369.645C1001.12 433.615 1009.33 498.886 1016.87 563.659C1023.85 623.692 1041.75 705.41 987.599 749.581C941.213 787.432 855.231 774.294 799.147 773.631C731.724 772.828 661.333 765.949 594.695 777.254L589.58 780.423L589.083 780.484C587.625 781.671 585.975 782.753 584.299 783.644C567.696 813.743 582.588 869.673 585.242 902.392C588.393 941.229 598.056 990.551 582.222 1027.42C579.69 1030.65 577.141 1033.87 574.592 1037.08C555.834 1051.26 527.141 1051.65 504.786 1048.52C474.392 1044.27 459.273 1029.35 448.143 1001.35Z" stroke="url(#paint4_linear_120_1504)" stroke-width="0.516727" stroke-linecap="round" stroke-linejoin="round"/>
<path fill-rule="evenodd" clip-rule="evenodd" d="M439.126 1042.89C414.964 990.42 412.118 926.092 404.629 869.342C397.139 812.591 390.13 759.402 384.674 704.24C381.61 673.189 377.438 641.02 384.639 610.354C386.752 606.705 389.109 603.204 391.701 599.869C394.8 597.94 397.855 595.941 400.867 593.872C478.8 563.223 570.603 598.307 650.142 567.963C721.974 540.561 771.747 473.71 791.858 401.054C805.083 353.277 798.327 303.318 810.565 256.187C812.756 252.66 815.078 249.221 817.548 245.886C820.848 243.992 824.095 242.01 827.29 239.941C906.689 212.164 967.635 286.4 981.899 356.036C995.691 423.349 1002.12 492.644 1010.58 560.787C1018.32 623.003 1039.75 707.173 988.079 756.338C942.312 799.889 852.15 784.683 794.154 784.298C728.643 783.862 651.443 772.234 587.328 786.69L586.918 786.943L580.423 787.808L577.351 791.011L576.015 791.09L576.111 792.609C565.741 827.815 579.184 877.556 582.754 913.365C586.857 954.49 592.775 996.514 587.407 1037.71C585.669 1042.01 583.758 1046.25 581.689 1050.39C578.712 1052.8 575.788 1055.29 572.942 1057.85C540.627 1073.67 478.922 1073.88 448.615 1053.65C445.236 1050.24 442.076 1046.66 439.117 1042.89L439.126 1042.89Z" stroke="url(#paint5_linear_120_1504)" stroke-width="0.516727" stroke-linecap="round" stroke-linejoin="round"/>
<path fill-rule="evenodd" clip-rule="evenodd" d="M416.37 1047.08C389.074 937.773 380.676 820.107 368.971 708.107C365.671 676.558 362.642 645.429 362.974 613.697C364.213 608.712 365.741 603.815 367.557 599.005C370.14 596.299 372.995 593.855 376.068 591.725C415.933 576.719 467.269 582.855 509.194 582.62C549.234 582.393 589.676 584.156 628.224 571.664C705.301 546.689 759.657 477.787 778.844 400.364C790.095 354.971 789.886 307.613 788.253 261.224C789.432 256.17 790.645 251.115 791.876 246.078C794.495 243.206 797.122 240.343 799.75 237.48C875.352 203.068 953.573 267.57 972.34 338.35C989.318 402.381 992.836 473.003 1000.68 538.728C1008.59 604.985 1036.94 697.57 991.492 755.404C948.641 809.92 858.775 793.517 797.34 793.368C724.61 793.194 643.683 783.068 571.808 795.158L570.743 796.275L566.544 796.511C569.102 881.877 598.833 974.882 585.416 1059.75C582.998 1063.13 580.633 1066.54 578.302 1069.98C575.134 1071.73 571.86 1073.29 568.508 1074.65C530.004 1084.07 472.602 1086.22 434.901 1072.36C431.445 1069.81 428.04 1067.13 424.723 1064.36C421.572 1058.75 418.595 1053.08 416.378 1047.09L416.37 1047.08Z" stroke="url(#paint6_linear_120_1504)" stroke-width="0.516727" stroke-linecap="round" stroke-linejoin="round"/>
<path fill-rule="evenodd" clip-rule="evenodd" d="M402.927 1069.26C381.698 949.479 368.194 827.929 354.21 706.946C350.195 672.194 347.104 637.695 345.926 602.803C347.567 598.708 349.714 594.754 352.246 591.184C355.528 590.337 358.862 589.167 361.987 587.762C446.677 575.662 539.711 599.712 621.817 571.944C699.4 545.703 751.277 472.732 767.932 394.646C777.761 348.563 776.277 298.202 770.856 251.648C772.166 246.812 773.624 241.993 775.23 237.244C778.416 235.795 781.611 234.241 784.727 232.617C861.246 218.755 931.584 247.213 960.146 323.448C983.95 386.991 983.243 466.037 991.614 533.219C999.706 598.15 1027.19 688.946 993.439 749.424C955.275 817.803 865.366 800.972 799.496 801.007C718.683 801.051 637.773 799.898 557.047 801.915C567.67 888.748 577.115 975.851 584.657 1062.95C583.705 1068.38 582.632 1073.78 581.436 1079.17C578.625 1081.37 575.587 1083.37 572.436 1085.11C526.155 1095.25 469.215 1093.66 422.497 1086.45C419.067 1084.92 415.47 1083.63 411.883 1082.62C408.723 1078.61 405.764 1074.36 403.075 1069.99L402.935 1069.27L402.927 1069.26Z" stroke="url(#paint7_linear_120_1504)" stroke-width="0.516727" stroke-linecap="round" stroke-linejoin="round"/>
<path fill-rule="evenodd" clip-rule="evenodd" d="M395.463 1093.6C393.438 1090.64 391.256 1087.79 388.934 1085.07C365.724 962.032 356.829 834.677 341.605 710.307C337.04 673.023 333.583 635.556 329.664 598.394L331.575 592.484C333.164 590.668 335.015 589.176 337.136 588.006L339.065 587.822L340.374 588.076C429.838 578.953 530.397 604.217 616.099 572.712C691.736 544.908 740.043 473.675 756.192 396.934C766.754 346.739 760.46 295.549 754.708 245.188C755.371 240.745 756.995 236.502 759.465 232.687L762.171 232.303L763.559 232.705C841.413 222.133 915.113 240.203 948.685 318.682C975.221 380.705 973.327 462.056 981.488 528.636C989.074 590.485 1013.23 671.198 994.765 731.904C966.474 824.917 865.925 807.074 789.257 807.196C708.793 807.327 627.936 805.075 547.524 807.301C552.455 852.764 558.906 898.132 564.379 943.543C567.434 968.92 570.507 994.296 573.501 1019.68C576.102 1041.72 584.823 1071.95 576.792 1093.24L574.88 1094.31L573.44 1093.78C547.201 1100.4 516.666 1097.44 489.728 1097.53C460.774 1097.64 431.026 1098.95 402.263 1095.43L400.718 1095.87L398.431 1095.67L395.463 1093.57V1093.6Z" stroke="url(#paint8_linear_120_1504)" stroke-width="0.516727" stroke-linecap="round" stroke-linejoin="round"/>
<path fill-rule="evenodd" clip-rule="evenodd" d="M330.947 976.191L331.506 977.562C334.744 980.827 337.948 984.135 341.09 987.479L341.701 987.741C346.24 987.121 350.806 986.632 355.38 986.283C357.832 983.158 360.076 979.884 362.118 976.471C363.358 972.761 364.484 968.981 365.488 965.183L366.273 963.883C366.404 959.143 367.338 954.498 369.058 950.116C372.323 912.117 375.692 855.095 404.899 827.038C406.637 825.284 408.339 823.416 409.927 821.521C412.18 820.456 414.196 819.033 415.942 817.27C418.281 816.292 420.411 814.948 422.314 813.254C424.854 812.626 427.185 811.526 429.28 809.972C472.716 790.924 528.302 801.932 574.007 805.686C621.816 809.614 670.647 813.787 718.596 809.745C774.898 805.005 818.927 781.418 828.163 721.743C836.036 670.858 825.535 615.085 816.509 564.977C807.606 515.551 798.091 431.581 748.938 404.956C744.791 403.437 740.505 402.171 736.228 401.202L724.418 403.21C720.865 404.755 717.609 406.781 714.65 409.277C678.905 446.055 666.387 509.318 639.196 553.21C614.606 592.903 582.352 628.363 544.215 655.241C505.074 682.835 460.39 695.807 412.956 699.788C358.697 704.345 295.062 702.721 287.887 771.021C280.816 838.369 307.728 900.986 323.894 964.092C326.216 968.099 328.59 972.15 330.964 976.165L330.947 976.191Z" stroke="url(#paint9_linear_120_1504)" stroke-width="0.516727" stroke-linecap="round" stroke-linejoin="round"/>
<path fill-rule="evenodd" clip-rule="evenodd" d="M318.281 1014.68C327.962 1039.04 349.776 1072.76 380.991 1058.76C384.386 1056.73 387.633 1054.45 390.697 1051.96C393.028 1048.46 395.359 1044.97 397.707 1041.49C421.459 980.722 384.308 896.726 420.725 841.626C422 839.731 423.257 837.811 424.47 835.881C426.312 834.616 427.901 833.071 429.21 831.255C431.218 830.225 433.225 829.107 435.154 827.955L435.425 827.868L441.177 824.035C547.855 796.031 661.979 836.266 770.429 815.437C900.256 790.505 849.112 602.75 831.811 512.984C825.788 481.724 819.957 449.32 807.719 419.753C794.853 388.658 758.522 338.053 718.761 361.832C715.951 364.591 713.061 367.271 710.085 369.855C691.553 395.319 686.787 430.464 676.809 459.891C667.373 487.703 656.026 514.94 640.916 540.212C612.197 588.242 570.359 629.751 519.119 652.771C465.497 676.864 408.924 672.002 351.87 679.151C320.987 683.018 290.243 692.001 280.607 724.92C272.218 753.579 276.338 786.9 279.402 816.074C286.202 880.812 294.006 953.975 318.281 1014.68Z" stroke="url(#paint10_linear_120_1504)" stroke-width="0.516727" stroke-linecap="round" stroke-linejoin="round"/>
<path fill-rule="evenodd" clip-rule="evenodd" d="M330.161 1066.32C349.47 1093.34 396.554 1100.34 421.135 1076.22C446.135 1046.74 435.364 989.94 433.365 954.455C431.549 922.243 422.043 874.885 437.345 844.96C438.777 843.38 439.894 841.573 440.68 839.583L441.588 839.024L444.931 835.07L449.287 833.332L450.762 832.084C453.031 831.403 455.214 830.478 457.282 829.317C511.115 817.89 568.735 823.852 623.475 825.31C681.741 826.864 752.237 835.803 808.54 817.724C879.114 795.071 878.224 718.163 872.567 657.266C866.727 594.352 858.156 530.958 845.917 468.987C835.058 414.035 802.167 295.592 720.76 328.293C717.539 330.624 714.327 332.972 711.123 335.329C708.749 338.664 706.305 341.946 703.808 345.193C689.048 375.721 688.367 412.516 679.21 444.963C670.839 474.644 659.709 503.661 644.154 530.382C615.627 579.39 570.394 622.295 516.448 641.527C455.31 663.316 390.287 650.876 327.639 663.228C283.819 671.862 271.502 699.491 271.794 742.178C272.034 775.752 276.172 809.483 280.406 842.751C285.015 878.944 290.95 914.954 296.685 950.954C302.525 987.583 306.82 1036 330.144 1066.32H330.161Z" stroke="url(#paint11_linear_120_1504)" stroke-width="0.516727" stroke-linecap="round" stroke-linejoin="round"/>
<path fill-rule="evenodd" clip-rule="evenodd" d="M317.539 1054.5C332.693 1103.53 402.377 1125.11 444.678 1092.79C447.227 1089.58 449.767 1086.37 452.298 1083.15C467.827 1045.97 458.531 997.387 455.353 958.322C452.682 925.534 437.939 869.953 454.454 839.766C456.13 838.876 457.78 837.793 459.238 836.606L459.735 836.545L464.851 833.376C524.784 823.974 586.665 828.549 647.227 829.422C704.673 830.251 782.641 841.669 836.551 818.387C906.951 787.991 895.821 702.302 888.96 640.61C881.881 576.946 873.248 513.377 862.485 450.254C851.722 387.13 808.4 267.544 717.522 306.111C714.414 308.495 711.315 310.886 708.225 313.287C705.973 316.822 703.712 320.358 701.46 323.893C688.026 364.687 690.689 409.522 678.634 451.109C667.705 488.821 650.928 525.31 625.858 555.785C573.405 619.528 505.633 640.357 425.483 642.304C383.129 643.334 325.247 636.219 287.773 659.763C284.849 662.382 282.151 665.21 279.681 668.257C257.169 708.203 274.287 776.739 279.323 819.854C284.892 867.622 291.71 915.329 298.876 962.87C303.52 993.677 308.81 1024.55 317.557 1054.5H317.539Z" stroke="url(#paint12_linear_120_1504)" stroke-width="0.516727" stroke-linecap="round" stroke-linejoin="round"/>
<path fill-rule="evenodd" clip-rule="evenodd" d="M327.289 1083.07C329.926 1089.75 334.447 1095.57 339.789 1100.39C370.132 1120.53 431.698 1120.41 464.004 1104.55C466.858 1101.99 469.774 1099.5 472.75 1097.1C474.793 1092.94 476.705 1088.72 478.468 1084.43C483.836 1043.34 478.023 1001.29 473.85 960.26C470.184 924.216 457.204 875.199 467.242 839.67L467.146 838.151L468.482 838.073L471.554 834.869L478.04 834.005L478.45 833.751C535.53 820.683 604.131 830.679 662.476 831.15C694.844 831.412 727.228 831.717 759.596 831.281C791.963 830.845 829.123 833.577 858.522 818.064C927.927 781.461 911.56 694.122 904.131 630.44C896.144 561.948 887.503 493.404 876.469 425.348C864.327 350.466 810.102 255.471 718.325 287.683C715.13 289.752 711.891 291.734 708.592 293.628C706.122 296.963 703.8 300.394 701.609 303.92C690.313 347.341 696.319 393.739 685.504 437.884C675.98 476.774 659.657 513.202 634.796 544.734C584.683 608.293 516.527 629.314 437.948 630.466C391.867 631.139 335.695 624.138 292.19 641.247C289.187 643.316 286.132 645.315 283.033 647.236C280.423 650.544 278.058 654.054 275.971 657.711C263.89 709.128 277.665 768.524 283.705 820.264C290.444 877.932 297.611 935.739 306.663 993.074C311.237 1022.06 313.436 1056.7 327.272 1083.08L327.289 1083.07Z" stroke="url(#paint13_linear_120_1504)" stroke-width="0.516727" stroke-linecap="round" stroke-linejoin="round"/>
<path fill-rule="evenodd" clip-rule="evenodd" d="M327.752 1082.19C329.699 1089.31 333.217 1095.66 336.839 1102.08C340.147 1104.84 343.552 1107.52 347.009 1110.08C384.273 1124.17 442.408 1121.7 480.511 1112.34C483.863 1110.98 487.127 1109.42 490.296 1107.68C492.618 1104.24 494.992 1100.83 497.41 1097.45C504.568 1052.91 495.141 1004.96 490.244 960.391C485.643 918.463 479.908 876.561 478.608 834.511L482.806 834.275L483.871 833.158C545.839 823.058 614.493 830.967 677.176 831.22C712.529 831.359 747.89 831.56 783.252 831.098C819.058 830.635 857.379 833.245 887.084 809.693C948.999 760.606 923.772 668.143 915.61 601.38C907.51 535.157 900.317 468.446 889.441 402.625C876.225 322.671 801.26 236.423 711.77 276.056C709.142 278.91 706.515 281.773 703.905 284.645C702.674 289.682 701.469 294.728 700.282 299.774C703.128 381.264 697.524 463.156 647.681 531.386C595.638 602.628 521.668 620.279 437.991 620.777C390.951 621.056 332.911 613.199 288.332 629.995C285.259 632.116 282.405 634.561 279.821 637.267C278.005 642.068 276.478 646.965 275.238 651.941C273.946 762.213 295.638 876.369 310.931 985.392C315.497 1017.92 320.062 1050.25 327.752 1082.19Z" stroke="url(#paint14_linear_120_1504)" stroke-width="0.516727" stroke-linecap="round" stroke-linejoin="round"/>
<path fill-rule="evenodd" clip-rule="evenodd" d="M335.914 1097.59C336.01 1097.96 336.08 1098.34 336.141 1098.72C338.829 1103.08 341.78 1107.33 344.94 1111.34C348.527 1112.35 352.115 1113.64 355.545 1115.16C402.211 1122.21 459.212 1124.13 505.397 1113.8C508.548 1112.08 511.577 1110.07 514.388 1107.87C515.593 1102.49 516.675 1097.09 517.618 1091.67C510.024 1004.67 500.858 917.581 490.06 830.853C562.668 828.959 635.451 829.806 708.138 829.893C769.434 829.963 862.93 848.26 909.928 800.221C961.63 747.373 936.621 661.308 928.686 596.509C919.888 524.656 915.183 450.018 900.439 379.152C881.689 289.028 805.275 245.782 717.705 262.01C714.58 263.633 711.394 265.187 708.208 266.636C706.602 271.377 705.144 276.187 703.835 281.023C713.454 363.84 708.199 451.764 658.383 521.915C608.566 592.065 538.105 612.519 456.733 612.623C403.328 612.693 348.073 609.341 295.14 616.91C292.024 618.306 288.69 619.485 285.407 620.331C282.937 623.937 280.79 627.883 279.088 631.942C283.19 749.241 303.52 866.81 318.01 983.28C322.794 1021.75 329.079 1059.54 335.896 1097.6L335.914 1097.59Z" stroke="url(#paint15_linear_120_1504)" stroke-width="0.516727" stroke-linecap="round" stroke-linejoin="round"/>
<path fill-rule="evenodd" clip-rule="evenodd" d="M344.416 1106.41L349.487 1113.32L352.455 1115.43L354.742 1115.63L356.287 1115.18C385.05 1118.7 414.781 1117.38 443.726 1117.28C470.655 1117.17 501.19 1120.14 527.412 1113.52L528.852 1114.05L530.764 1112.97C538.794 1091.69 530.083 1061.49 527.482 1039.45C524.496 1014.09 521.424 988.718 518.368 963.359C512.904 917.974 506.453 872.633 501.539 827.196C569.826 825.345 638.48 827.222 706.803 827.126C752.761 827.056 798.763 827.449 844.722 826.768C883.775 826.192 916.928 812.643 937.538 777.673C972.079 719.063 945.909 634.517 938.21 571.114C930.039 503.809 927.394 431.922 911.752 365.952C889.109 270.477 805.799 240.91 717.548 252.896L716.16 252.495L713.454 252.879C711.001 256.702 709.378 260.927 708.697 265.371C720.184 352.291 721.031 441.288 668.124 515.926C618.779 585.544 547.803 605.945 466.273 605.91C409.43 605.884 351.085 602.61 294.486 608.11L293.176 607.857L291.247 608.04C289.126 609.201 287.275 610.694 285.687 612.51L283.775 618.411C296.982 743.741 312.677 869.359 328.075 994.672C332.579 1031.32 336.123 1068.52 342.967 1104.79L344.416 1106.4V1106.41Z" stroke="url(#paint16_linear_120_1504)" stroke-width="0.516727" stroke-linecap="round" stroke-linejoin="round"/>
<path fill-rule="evenodd" clip-rule="evenodd" d="M710.233 244.603H715.139L740.191 233.621C689.022 233.534 637.852 233.447 586.682 233.351C539.03 233.272 496.118 229.902 451.906 249.369C489.598 240.849 529.481 244.298 567.801 244.367C615.278 244.446 662.747 244.524 710.224 244.603H710.233Z" stroke="url(#paint17_linear_120_1504)" stroke-width="0.516727" stroke-linecap="round" stroke-linejoin="round"/>
<path fill-rule="evenodd" clip-rule="evenodd" d="M740.2 233.621C729.882 149.591 724.121 41.9902 624.906 14.8936C577.569 1.96519 519.311 10.7558 470.559 10.6162C412.703 10.4503 354.847 10.2757 296.982 10.1099C218.543 9.88289 104.611 -14.7257 71.2051 79.4487C54.4715 126.614 69.4593 180.973 75.2816 228.829C83.3909 295.453 91.4914 362.076 99.6007 428.7C115.889 562.559 132.169 696.418 148.457 830.277C150.491 846.959 152.516 863.65 154.55 880.332C219.905 880.219 285.25 880.105 350.605 880.001C339.955 792.714 329.306 705.436 318.656 618.149C310.634 552.381 297.069 485.617 310.879 419.726C330.615 325.57 401.259 245.397 499.985 234.529C578.381 225.896 661.341 233.482 740.208 233.612L740.2 233.621Z" stroke="url(#paint18_linear_120_1504)" stroke-width="0.516727" stroke-linecap="round" stroke-linejoin="round"/>
<path fill-rule="evenodd" clip-rule="evenodd" d="M714.458 239.06L715.139 244.62C641.081 244.498 566.492 241.722 492.487 244.341C445.271 246.008 400.072 262.691 364.039 293.471C271.755 372.299 276.478 488.21 289.851 597.827C301.757 695.493 313.672 793.159 325.579 890.825C260.242 890.939 194.905 891.052 129.568 891.166C113.349 757.804 97.1305 624.443 80.9119 491.082C72.8114 424.466 64.7108 357.851 56.6102 291.236C49.8801 235.865 32.5792 172.584 40.0687 116.881C44.5903 83.2634 62.0834 50.8506 92.0415 33.5399C130.537 11.297 183.74 20.9606 226.12 21.0741C341.221 21.4058 457.605 16.6744 572.558 22.0867C665.532 26.469 698.973 112.83 708.671 191.824C710.6 207.572 712.538 223.312 714.467 239.06H714.458Z" stroke="url(#paint19_linear_120_1504)" stroke-width="0.516727" stroke-linecap="round" stroke-linejoin="round"/>
<path fill-rule="evenodd" clip-rule="evenodd" d="M274.688 566.636C269.171 506.961 248.169 445.103 234.866 386.414C221.572 327.804 210.076 268.312 203.555 208.48C197.008 148.368 187.59 63.7617 255.022 34.3344C310.242 10.2408 385.399 20.7163 443.465 26.6524C506.715 33.121 597.768 36.0628 648.597 77.8337C649.54 82.7659 650.439 87.6981 651.303 92.639C646.843 97.8244 642.033 102.713 637.092 107.444C561.481 139.796 489.659 161.795 432.833 224.953C373.623 290.765 341.047 375.433 332.606 462.719C328.04 509.999 324.444 566.828 330.72 613.749L329.873 617.075C329.978 621.405 329.9 625.665 329.611 629.96L327.316 637.799L327.237 644.905L324.959 648.336L323.056 657.895L319.416 659.012L312.625 663.412L307.902 661.072C305.598 657.03 302.735 653.163 299.522 649.733C297.777 645.883 296.31 641.911 295.114 637.817L293.211 635.111C292.4 629.48 290.61 624.172 287.843 619.188C286.734 613.426 285.189 607.77 283.225 602.27C282.3 596.439 280.825 590.677 278.852 585.143C278.398 578.822 276.836 572.572 274.68 566.653L274.688 566.636Z" stroke="url(#paint20_linear_120_1504)" stroke-width="0.516727" stroke-linecap="round" stroke-linejoin="round"/>
<path fill-rule="evenodd" clip-rule="evenodd" d="M280.842 740.948C255.921 708.832 251.39 656.245 245.14 617.241C238.559 576.195 232.082 535.114 225.282 494.093C213.253 421.499 200.09 349.061 189.126 276.221C178.162 203.382 146.004 79.2916 217.574 32.1869C251.827 9.63853 300.666 11.6987 340.051 11.8733C379.463 12.0566 418.848 14.3699 458.155 17.0586C500.343 19.9481 542.74 22.8114 584.77 27.4119C632.187 32.5972 682.466 37.8262 710.669 80.7756C712.084 85.6205 713.498 90.4567 714.912 95.3016C714.676 100.199 714.432 105.087 714.179 109.976C711.612 115.161 708.54 120.181 705.109 124.825C662.276 156.862 597.724 149.617 548.056 164.902C501.818 179.14 460.783 205.887 428.162 241.53C347.244 329.917 337.66 441.524 345.978 555.209C350.09 611.401 368.333 689.024 345.123 742.327C342.853 745.906 340.54 749.45 338.166 752.959C334.884 755.185 331.593 757.403 328.302 759.62C310.355 767.276 290.269 756.748 280.868 740.956L280.842 740.948Z" stroke="url(#paint21_linear_120_1504)" stroke-width="0.516727" stroke-linecap="round" stroke-linejoin="round"/>
<path fill-rule="evenodd" clip-rule="evenodd" d="M260.181 780.658C237.45 748.769 232.911 706.544 226.338 668.964C220.228 634.011 215.357 598.787 210.565 563.633C199.837 484.884 187.188 406.405 175.657 327.734C165.2 256.362 147.532 177.796 154.367 105.524C163.812 5.71893 256.628 5.49196 335.277 6.13795C404.917 6.7141 474.549 10.3718 544.084 14.0644C612.817 17.7221 733.252 15.2778 738.987 110.901C743.63 188.481 590.261 169.808 540.069 182.623C476.635 198.817 423.824 242.578 389.755 297.714C307.064 431.529 364.929 584.086 362.642 729.337C362.337 748.778 361.298 771.693 348.327 787.328C325.509 811.028 280.249 804.333 260.181 780.65V780.658Z" stroke="url(#paint22_linear_120_1504)" stroke-width="0.516727" stroke-linecap="round" stroke-linejoin="round"/>
<path fill-rule="evenodd" clip-rule="evenodd" d="M232.439 795.018C202.752 724.754 199.767 641.23 189.711 566.182C180.135 494.774 170.149 423.428 160.442 352.02C150.151 276.335 135.145 198.598 134.52 122.049C134.176 79.2217 148.78 34.3343 190.252 14.8238C225.116 -1.56156 270.786 2.73338 308.304 2.74211C380.624 2.76829 452.935 5.23876 525.203 7.54336C601.626 9.9789 700.648 -0.051351 738.777 82.7571C748.318 103.481 756.322 134.174 745.647 156.042C736.298 175.177 713.471 179.271 694.398 182.518C657.378 188.821 619.215 187.346 581.837 189.912C506.375 195.098 440.619 227.153 395.952 289.403C299.54 423.742 361.525 593.689 365.68 744.125C366.23 763.915 367.495 785.276 358.88 803.722C356.34 806.952 353.791 810.182 351.233 813.394C319.093 839.085 253.625 829.552 232.448 795.018H232.439Z" stroke="url(#paint23_linear_120_1504)" stroke-width="0.516727" stroke-linecap="round" stroke-linejoin="round"/>
<path fill-rule="evenodd" clip-rule="evenodd" d="M189.728 705.069C182.955 617.835 166.876 530.251 155.659 443.436C143.883 352.291 131.026 261.242 121.258 169.808C116.099 121.543 111.193 67.8035 148.92 30.4061C184.282 -4.65177 239.275 1.43273 285.032 1.36289C370.577 1.22322 456.148 3.16991 541.675 4.97693C584.832 5.89353 635.443 0.812933 675.762 18.6037C721.241 38.6817 749.191 85.8474 753.503 134.262C754.76 148.377 753.992 161.891 749.505 175.325C747.367 178.843 744.809 182.099 741.902 184.998C715.148 202.055 675.343 199.454 644.818 200.44C614.292 201.427 585.652 200.737 556.288 203.207C503.259 207.668 454.428 228.514 416.169 265.659C321.205 357.851 336.42 485.268 349.706 604.417C357.318 672.656 372.899 745.74 364.222 814.241C362.45 818.536 360.539 822.787 358.522 826.969C355.546 829.395 352.621 831.883 349.758 834.441C317.531 850.381 255.58 850.276 225.395 830.068C194.538 801.705 197.654 743.191 189.72 705.06L189.728 705.069Z" stroke="url(#paint24_linear_120_1504)" stroke-width="0.516727" stroke-linecap="round" stroke-linejoin="round"/>
<path fill-rule="evenodd" clip-rule="evenodd" d="M193.604 825.746C169.381 725.365 161.979 619.834 149.514 517.463C137.529 419.046 124.295 320.768 112.38 222.308C106.427 173.134 91.7883 115.432 110.058 67.5853C131.296 11.9868 179.297 2.15733 232.553 1.66847C327.228 0.795516 421.965 2.61126 516.631 3.71118C563.21 4.25242 620.14 -3.27245 664.144 13.9509C719.46 35.6089 747.55 91.1114 752.578 147.487C753.756 160.738 753.608 173.3 752.22 186.517C750.605 190.716 748.466 194.635 745.813 198.267C742.592 199.829 739.528 201.645 736.603 203.705C678.773 221.924 609.858 209.781 550.011 212.871C493.412 215.796 439.091 238.85 400.491 280.935C311.909 377.493 331.811 500.283 345.638 618.856C353.695 687.951 373.196 767.346 362.328 836.466C359.91 839.853 357.536 843.267 355.205 846.715C352.045 848.496 348.78 850.067 345.411 851.429C307.021 860.918 249.208 863.013 211.647 848.967C208.216 846.331 204.821 843.633 201.469 840.892C198.693 835.934 196.074 830.879 193.621 825.746H193.604Z" stroke="url(#paint25_linear_120_1504)" stroke-width="0.516727" stroke-linecap="round" stroke-linejoin="round"/>
<path fill-rule="evenodd" clip-rule="evenodd" d="M179.786 846.628C161.813 747.233 150.945 646.572 138.602 546.235C126.643 449.075 114.274 351.933 102.673 254.703C96.5717 203.565 80.9729 145.68 89.3965 94.4199C98.8762 36.8136 141.404 4.23495 197.916 3.17868C303.686 1.19707 409.718 3.93815 515.505 4.63651C565.104 4.9595 625.43 -4.26763 670.385 20.3322C725.544 50.519 745.018 109.112 749.68 168.08C750.762 181.785 750.841 194.583 748.475 208.14C745.42 210.217 742.557 212.548 739.903 215.106C736.516 215.796 733.138 216.607 729.83 217.541C612.537 231.963 483.705 191.458 392.155 287.256C298.466 385.297 325.901 519.558 340.671 640.488C348.78 706.885 355.475 773.282 361.638 839.792C360.687 845.231 359.613 850.634 358.408 856.02C355.615 858.247 352.56 860.272 349.409 861.991C303.11 872.153 245.952 870.485 199.234 863.153C195.786 861.634 192.199 860.333 188.602 859.294C185.46 855.244 182.501 850.984 179.795 846.61L179.786 846.628Z" stroke="url(#paint26_linear_120_1504)" stroke-width="0.516727" stroke-linecap="round" stroke-linejoin="round"/>
<path fill-rule="evenodd" clip-rule="evenodd" d="M163.192 846.043C153.276 744.413 137.799 642.496 124.924 541.05C112.336 441.865 100.674 342.505 88.7244 243.189C82.8497 194.364 67.3731 138.53 78.2408 89.7845C89.8766 37.5556 130.702 6.68792 183.068 5.77132C293.019 3.85082 403.241 6.61808 513.21 7.01964C565.252 7.21169 624.941 -2.27732 670.673 27.7523C724.147 62.8713 737.398 121.054 743.386 180.502C744.652 193.029 746.712 206.08 745.752 218.633L742.269 224.237L738.349 223.748C736.315 224.647 734.29 225.573 732.291 226.542C609.395 232.355 461.254 196.224 372.584 304.488C292.6 402.154 317.443 523.041 331.436 637.904C336.263 677.545 341.09 717.186 345.847 756.835C349.627 788.393 365.863 840.037 353.817 870.258L351.923 871.315L350.5 870.791C324.199 877.382 293.621 874.387 266.622 874.457C237.598 874.527 207.797 875.784 178.965 872.249L177.438 872.685L175.203 872.493L172.279 870.442C170.262 867.439 168.054 864.558 165.697 861.834C164.65 856.597 163.82 851.324 163.209 846.034L163.192 846.043Z" stroke="url(#paint27_linear_120_1504)" stroke-width="0.516727" stroke-linecap="round" stroke-linejoin="round"/>
<path fill-rule="evenodd" clip-rule="evenodd" d="M104.219 808.174C115.767 825.511 133.548 844.218 156.663 834.109C159.954 831.901 163.236 829.683 166.518 827.457C168.883 823.957 171.205 820.421 173.466 816.851C193.962 768.996 179.978 702.022 176.067 651.679C171.799 596.797 166.169 541.119 175.509 486.42C193.002 383.979 258.182 284.96 357.614 247.021C411.961 226.288 486.141 236.127 533.191 200.545C536.621 195.918 539.694 190.899 542.251 185.731C542.513 180.851 542.758 175.963 542.993 171.083C541.588 166.255 540.174 161.419 538.768 156.592C495.394 90.5701 381.305 100.33 311.324 94.9262C236.874 89.1734 147.218 74.9181 74.3914 95.9301C-21.4274 123.568 3.76467 246.366 13.6285 320.821C23.3963 394.568 36.4288 467.887 49.3391 541.067C64.9466 629.497 68.9969 724.859 104.219 808.183V808.174Z" stroke="url(#paint28_linear_120_1504)" stroke-width="0.516727" stroke-linecap="round" stroke-linejoin="round"/>
<path fill-rule="evenodd" clip-rule="evenodd" d="M108.016 843.677C127.673 868.932 173.702 877.443 197.611 852.686C221.712 823.643 211.865 768.943 209.281 734.208C206.488 696.628 202.385 659.143 198.885 621.623C192.138 549.36 188.567 478.651 216.23 409.775C241.186 347.647 286.149 294.545 346.52 265.091C413.515 232.408 490.165 252.137 557.204 224.778C605.537 205.058 588.742 147.583 558.365 118.583C528.259 89.8456 484.989 86.4847 445.498 83.7873C377.019 79.117 308.26 75.9744 239.65 74.0539C176.993 72.2992 72.6804 55.1456 27.56 109.828C-19.542 166.893 8.55682 269.954 17.3732 336.281C27.9266 415.641 40.6448 494.67 52.1584 573.829C62.5286 645.176 69.0492 718.286 86.2018 788.41C90.8631 807.458 96.0481 827.711 108.007 843.677H108.016Z" stroke="url(#paint29_linear_120_1504)" stroke-width="0.516727" stroke-linecap="round" stroke-linejoin="round"/>
<path fill-rule="evenodd" clip-rule="evenodd" d="M100.657 846.252C117.364 886.443 188.829 895.539 221.45 869.621C224.007 866.409 226.547 863.187 229.088 859.958C245.865 824.839 234.884 774.26 231.532 737.037C228.023 697.963 223.798 658.916 219.398 619.939C210.634 542.324 206.156 466.473 239.152 393.32C269.014 327.115 325.57 273.655 396.511 254.991C431.488 245.79 468.674 246.34 504.55 244.594C536.307 243.049 598.187 247.135 615.305 213.919C635.94 173.859 602.578 116.279 570.472 93.0581C535.73 67.9257 491.038 68.5979 450.011 66.9131C377.839 63.945 305.554 61.8761 233.321 60.7849C166.876 59.7898 60.4684 41.676 20.7076 109.644C-1.49911 147.618 5.07386 194.53 9.29873 236.17C13.2879 275.462 18.2285 314.675 23.562 353.792C43.2111 498.022 57.9807 643.971 84.3337 787.066C87.965 806.803 91.3431 828.269 100.666 846.252H100.657Z" stroke="url(#paint30_linear_120_1504)" stroke-width="0.516727" stroke-linecap="round" stroke-linejoin="round"/>
<path fill-rule="evenodd" clip-rule="evenodd" d="M81.0255 752.156C89.0388 790.392 85.809 848.74 116.684 877.233C147.035 897.154 208.609 897.695 240.924 881.572C243.787 879.014 246.712 876.526 249.68 874.099C251.705 869.927 253.608 865.675 255.38 861.389C271.144 738.041 219.407 613.226 229.21 489.598C238.044 378.113 310.888 272.241 425.954 253.882C457.562 248.837 489.851 249.657 521.773 248.784C556.296 247.842 602.307 251.796 632.859 232.923C635.766 230.033 638.314 226.777 640.453 223.268C655.982 176.713 633.775 118.976 598.266 87.41C560.626 53.9497 512.782 55.1631 465.348 53.9409C380.266 51.7411 295.114 50.2222 209.997 49.742C165.994 49.4976 110.495 41.7108 69.1103 59.3358C20.4546 80.051 6.50557 132.874 9.41235 181.366C14.9204 273.349 30.397 365.472 42.5915 456.722C54.0265 542.272 64.5363 627.926 75.7706 713.493C77.4553 726.334 80.074 739.228 81.0342 752.165L81.0255 752.156Z" stroke="url(#paint31_linear_120_1504)" stroke-width="0.516727" stroke-linecap="round" stroke-linejoin="round"/>
<path fill-rule="evenodd" clip-rule="evenodd" d="M105.406 861.93C107.614 867.832 110.573 873.436 113.681 878.962C117.024 881.703 120.42 884.4 123.85 887.028C161.289 900.951 219.267 899.101 257.518 889.455C260.879 888.093 264.144 886.521 267.303 884.749C269.634 881.301 272 877.897 274.426 874.51C283.854 814.154 268.072 747.242 261.062 686.938C254.009 626.259 241.16 562.681 242.958 501.479C246.424 383.761 318.726 270.425 441.483 253.271C508.653 243.887 583.286 263.179 648.562 242.377C651.487 240.317 654.55 238.51 657.771 236.947C660.416 233.316 662.555 229.405 664.17 225.206C670.106 168.813 654.297 107.828 608.252 71.4349C566.544 38.4722 513.253 43.7274 463.175 43.0726C370.795 41.868 278.398 40.6284 186.01 40.5411C138.532 40.4974 82.2999 32.7892 45.7251 69.7327C4.68111 111.189 14.2307 169.834 20.1141 222.081C31.2698 321.17 44.7736 419.971 57.2562 518.85C70.0792 620.349 79.3582 722.816 96.825 823.643C99.0684 836.606 102.298 849.159 105.397 861.93H105.406Z" stroke="url(#paint32_linear_120_1504)" stroke-width="0.516727" stroke-linecap="round" stroke-linejoin="round"/>
<path fill-rule="evenodd" clip-rule="evenodd" d="M112.834 874.99L112.956 875.618C115.653 879.992 118.613 884.243 121.755 888.294C125.343 889.324 128.93 890.633 132.378 892.143C179.044 899.319 236.263 901.318 282.466 890.956C285.617 889.236 288.672 887.211 291.465 884.985C292.679 879.608 293.752 874.195 294.695 868.766C289.545 809.186 283.373 749.799 276.224 690.351C268.927 629.646 256.017 566.811 256.174 505.643C256.479 387.157 327.595 265.493 454.236 251.796C523.265 244.324 593.691 255.393 662.782 246.977C666.09 246.043 669.468 245.223 672.846 244.542C675.5 241.984 678.363 239.662 681.418 237.584C691.012 183.13 674.968 115.772 636.333 75.5116C594.259 31.6719 541.753 34.9105 485.547 34.5264C383.339 33.8193 281.121 32.9464 178.913 32.798C124.915 32.7194 69.5815 28.634 37.9474 81.3779C7.77107 131.695 25.1681 197.132 31.9593 251.622C43.9705 347.961 56.3832 444.291 67.6262 540.692C79.1398 639.414 90.4177 738.486 105.144 836.754C107.082 849.718 110.468 862.131 112.825 874.99H112.834Z" stroke="url(#paint33_linear_120_1504)" stroke-width="0.516727" stroke-linecap="round" stroke-linejoin="round"/>
<path fill-rule="evenodd" clip-rule="evenodd" d="M117.207 865.256C117.827 870.782 118.683 876.282 119.774 881.746C122.139 884.47 124.339 887.351 126.355 890.354L129.28 892.405L131.514 892.597L133.042 892.161C161.865 895.687 191.657 894.43 220.664 894.361C247.646 894.291 278.223 897.285 304.507 890.685L305.929 891.209L307.824 890.153C318.936 862.742 304.69 817.768 301.303 789.161C297.148 754.059 292.941 718.958 288.646 683.874C280.982 621.353 267.731 556.623 268.482 493.552C269.704 391.12 325.832 286.784 428.634 256.536C460.774 247.082 493.656 248.077 526.932 248.06C579.961 248.034 633.278 249.273 686.228 246.768C688.227 245.808 690.252 244.874 692.286 243.983L696.205 244.472L699.688 238.868C704.9 184.343 689.519 113.974 652.901 72.8404C613.341 28.407 566.02 27.7086 510.774 27.534C397.296 27.1761 283.81 26.5738 170.332 26.2437C120.681 26.1111 75.238 27.5515 46.5107 74.7434C17.8707 121.796 32.4918 179.524 38.7942 230.671C50.7268 327.481 62.7642 424.301 74.4873 521.094C86.8302 622.985 98.5708 725.016 111.725 826.759C113.384 839.6 115.959 852.424 117.19 865.265L117.207 865.256Z" stroke="url(#paint34_linear_120_1504)" stroke-width="0.516727" stroke-linecap="round" stroke-linejoin="round"/>
<defs>
<linearGradient id="paint0_linear_120_1504" x1="22815.6" y1="11125.1" x2="14574.2" y2="29428.6" gradientUnits="userSpaceOnUse">
<stop stop-color="#7CBEDB"/>
<stop offset="1" stop-color="#03D3D3" stop-opacity="0.0724159"/>
</linearGradient>
<linearGradient id="paint1_linear_120_1504" x1="14431.5" y1="9081.79" x2="7674.45" y2="39683" gradientUnits="userSpaceOnUse">
<stop stop-color="#7CBEDB"/>
<stop offset="1" stop-color="#03D3D3" stop-opacity="0.0724159"/>
</linearGradient>
<linearGradient id="paint2_linear_120_1504" x1="29417.6" y1="14045" x2="15113.2" y2="61762.5" gradientUnits="userSpaceOnUse">
<stop stop-color="#7CBEDB"/>
<stop offset="1" stop-color="#03D3D3" stop-opacity="0.0724159"/>
</linearGradient>
<linearGradient id="paint3_linear_120_1504" x1="30814.2" y1="15189.7" x2="15832.9" y2="66861.6" gradientUnits="userSpaceOnUse">
<stop stop-color="#7CBEDB"/>
<stop offset="1" stop-color="#03D3D3" stop-opacity="0.0724159"/>
</linearGradient>
<linearGradient id="paint4_linear_120_1504" x1="31683.7" y1="15927.3" x2="16276.6" y2="70158.9" gradientUnits="userSpaceOnUse">
<stop stop-color="#7CBEDB"/>
<stop offset="1" stop-color="#03D3D3" stop-opacity="0.0724159"/>
</linearGradient>
<linearGradient id="paint5_linear_120_1504" x1="32428.2" y1="16444.1" x2="16649.7" y2="72473.5" gradientUnits="userSpaceOnUse">
<stop stop-color="#7CBEDB"/>
<stop offset="1" stop-color="#03D3D3" stop-opacity="0.0724159"/>
</linearGradient>
<linearGradient id="paint6_linear_120_1504" x1="33049.9" y1="16805.9" x2="16957.9" y2="74101.6" gradientUnits="userSpaceOnUse">
<stop stop-color="#7CBEDB"/>
<stop offset="1" stop-color="#03D3D3" stop-opacity="0.0724159"/>
</linearGradient>
<linearGradient id="paint7_linear_120_1504" x1="33541.9" y1="16977" x2="17196.6" y2="74869.4" gradientUnits="userSpaceOnUse">
<stop stop-color="#7CBEDB"/>
<stop offset="1" stop-color="#03D3D3" stop-opacity="0.0724159"/>
</linearGradient>
<linearGradient id="paint8_linear_120_1504" x1="33924.8" y1="17076.9" x2="17379.6" y2="75324" gradientUnits="userSpaceOnUse">
<stop stop-color="#7CBEDB"/>
<stop offset="1" stop-color="#03D3D3" stop-opacity="0.0724159"/>
</linearGradient>
<linearGradient id="paint9_linear_120_1504" x1="27497" y1="11783.2" x2="13882.4" y2="51763.8" gradientUnits="userSpaceOnUse">
<stop stop-color="#7CBEDB"/>
<stop offset="1" stop-color="#03D3D3" stop-opacity="0.0724159"/>
</linearGradient>
<linearGradient id="paint10_linear_120_1504" x1="29311.5" y1="14063.1" x2="14969.1" y2="61596.9" gradientUnits="userSpaceOnUse">
<stop stop-color="#7CBEDB"/>
<stop offset="1" stop-color="#03D3D3" stop-opacity="0.0724159"/>
</linearGradient>
<linearGradient id="paint11_linear_120_1504" x1="30427.5" y1="15231.6" x2="15568.4" y2="66806.3" gradientUnits="userSpaceOnUse">
<stop stop-color="#7CBEDB"/>
<stop offset="1" stop-color="#03D3D3" stop-opacity="0.0724159"/>
</linearGradient>
<linearGradient id="paint12_linear_120_1504" x1="31554.4" y1="16007.7" x2="16147.1" y2="70318.2" gradientUnits="userSpaceOnUse">
<stop stop-color="#7CBEDB"/>
<stop offset="1" stop-color="#03D3D3" stop-opacity="0.0724159"/>
</linearGradient>
<linearGradient id="paint13_linear_120_1504" x1="32277.1" y1="16480.6" x2="16519.4" y2="72471.6" gradientUnits="userSpaceOnUse">
<stop stop-color="#7CBEDB"/>
<stop offset="1" stop-color="#03D3D3" stop-opacity="0.0724159"/>
</linearGradient>
<linearGradient id="paint14_linear_120_1504" x1="32898.1" y1="16836.4" x2="16838.4" y2="74103.3" gradientUnits="userSpaceOnUse">
<stop stop-color="#7CBEDB"/>
<stop offset="1" stop-color="#03D3D3" stop-opacity="0.0724159"/>
</linearGradient>
<linearGradient id="paint15_linear_120_1504" x1="33411.2" y1="16992.8" x2="17098" y2="74835.9" gradientUnits="userSpaceOnUse">
<stop stop-color="#7CBEDB"/>
<stop offset="1" stop-color="#03D3D3" stop-opacity="0.0724159"/>
</linearGradient>
<linearGradient id="paint16_linear_120_1504" x1="33843" y1="17084.2" x2="17315.7" y2="75285.2" gradientUnits="userSpaceOnUse">
<stop stop-color="#7CBEDB"/>
<stop offset="1" stop-color="#03D3D3" stop-opacity="0.0724159"/>
</linearGradient>
<linearGradient id="paint17_linear_120_1504" x1="14866.2" y1="1045.91" x2="7717.1" y2="2146.47" gradientUnits="userSpaceOnUse">
<stop stop-color="#7CBEDB"/>
<stop offset="1" stop-color="#03D3D3" stop-opacity="0.0724159"/>
</linearGradient>
<linearGradient id="paint18_linear_120_1504" x1="33897.4" y1="16953.5" x2="17234" y2="75547" gradientUnits="userSpaceOnUse">
<stop stop-color="#7CBEDB"/>
<stop offset="1" stop-color="#03D3D3" stop-opacity="0.0724159"/>
</linearGradient>
<linearGradient id="paint19_linear_120_1504" x1="33883.9" y1="16945.8" x2="17213.7" y2="75474.8" gradientUnits="userSpaceOnUse">
<stop stop-color="#7CBEDB"/>
<stop offset="1" stop-color="#03D3D3" stop-opacity="0.0724159"/>
</linearGradient>
<linearGradient id="paint20_linear_120_1504" x1="22814.2" y1="12520.2" x2="11695.3" y2="55668.9" gradientUnits="userSpaceOnUse">
<stop stop-color="#7CBEDB"/>
<stop offset="1" stop-color="#03D3D3" stop-opacity="0.0724159"/>
</linearGradient>
<linearGradient id="paint21_linear_120_1504" x1="27298.7" y1="14574" x2="13959.4" y2="64846.5" gradientUnits="userSpaceOnUse">
<stop stop-color="#7CBEDB"/>
<stop offset="1" stop-color="#03D3D3" stop-opacity="0.0724159"/>
</linearGradient>
<linearGradient id="paint22_linear_120_1504" x1="29465.5" y1="15453.9" x2="15047.5" y2="68796.6" gradientUnits="userSpaceOnUse">
<stop stop-color="#7CBEDB"/>
<stop offset="1" stop-color="#03D3D3" stop-opacity="0.0724159"/>
</linearGradient>
<linearGradient id="paint23_linear_120_1504" x1="30945.4" y1="16026.4" x2="15787" y2="71373" gradientUnits="userSpaceOnUse">
<stop stop-color="#7CBEDB"/>
<stop offset="1" stop-color="#03D3D3" stop-opacity="0.0724159"/>
</linearGradient>
<linearGradient id="paint24_linear_120_1504" x1="31932.6" y1="16395.9" x2="16276.8" y2="73034.5" gradientUnits="userSpaceOnUse">
<stop stop-color="#7CBEDB"/>
<stop offset="1" stop-color="#03D3D3" stop-opacity="0.0724159"/>
</linearGradient>
<linearGradient id="paint25_linear_120_1504" x1="32710.7" y1="16643.2" x2="16659.7" y2="74149.3" gradientUnits="userSpaceOnUse">
<stop stop-color="#7CBEDB"/>
<stop offset="1" stop-color="#03D3D3" stop-opacity="0.0724159"/>
</linearGradient>
<linearGradient id="paint26_linear_120_1504" x1="33259.4" y1="16820.4" x2="16928.3" y2="74946.3" gradientUnits="userSpaceOnUse">
<stop stop-color="#7CBEDB"/>
<stop offset="1" stop-color="#03D3D3" stop-opacity="0.0724159"/>
</linearGradient>
<linearGradient id="paint27_linear_120_1504" x1="33651" y1="16887.3" x2="17116.5" y2="75251.1" gradientUnits="userSpaceOnUse">
<stop stop-color="#7CBEDB"/>
<stop offset="1" stop-color="#03D3D3" stop-opacity="0.0724159"/>
</linearGradient>
<linearGradient id="paint28_linear_120_1504" x1="26994.9" y1="14680" x2="13722.7" y2="65062.6" gradientUnits="userSpaceOnUse">
<stop stop-color="#7CBEDB"/>
<stop offset="1" stop-color="#03D3D3" stop-opacity="0.0724159"/>
</linearGradient>
<linearGradient id="paint29_linear_120_1504" x1="29330.3" y1="15543.2" x2="14904.4" y2="68972.3" gradientUnits="userSpaceOnUse">
<stop stop-color="#7CBEDB"/>
<stop offset="1" stop-color="#03D3D3" stop-opacity="0.0724159"/>
</linearGradient>
<linearGradient id="paint30_linear_120_1504" x1="30838.5" y1="16093.4" x2="15668.7" y2="71479.2" gradientUnits="userSpaceOnUse">
<stop stop-color="#7CBEDB"/>
<stop offset="1" stop-color="#03D3D3" stop-opacity="0.0724159"/>
</linearGradient>
<linearGradient id="paint31_linear_120_1504" x1="31830.9" y1="16448.5" x2="16171.7" y2="73106.9" gradientUnits="userSpaceOnUse">
<stop stop-color="#7CBEDB"/>
<stop offset="1" stop-color="#03D3D3" stop-opacity="0.0724159"/>
</linearGradient>
<linearGradient id="paint32_linear_120_1504" x1="32544.7" y1="16674.9" x2="16533.8" y2="74154.3" gradientUnits="userSpaceOnUse">
<stop stop-color="#7CBEDB"/>
<stop offset="1" stop-color="#03D3D3" stop-opacity="0.0724159"/>
</linearGradient>
<linearGradient id="paint33_linear_120_1504" x1="33188.2" y1="16826.8" x2="16858.9" y2="74872.5" gradientUnits="userSpaceOnUse">
<stop stop-color="#7CBEDB"/>
<stop offset="1" stop-color="#03D3D3" stop-opacity="0.0724159"/>
</linearGradient>
<linearGradient id="paint34_linear_120_1504" x1="33591.9" y1="16884.5" x2="17063.5" y2="75167.4" gradientUnits="userSpaceOnUse">
<stop stop-color="#7CBEDB"/>
<stop offset="1" stop-color="#03D3D3" stop-opacity="0.0724159"/>
</linearGradient>
</defs>
</svg>
