<svg width="120" height="40" viewBox="0 0 120 40" fill="none" xmlns="http://www.w3.org/2000/svg">
<g clip-path="url(#clip0_18_3996)">
<path d="M56.0249 29.4393C55.4571 29.4393 54.882 29.3214 54.329 29.0781L42.5318 23.8209C40.423 22.8845 39.4719 20.3997 40.4083 18.291L45.6654 6.49371C46.6018 4.38495 49.0866 3.4338 51.1954 4.3702L62.9926 9.62735C65.1014 10.5638 66.0525 13.0486 65.1161 15.1573L59.859 26.9546C59.1585 28.5177 57.6249 29.4393 56.0249 29.4393ZM55.3097 26.8661C56.2018 27.2642 57.2488 26.8587 57.647 25.9739L62.9041 14.1767C63.3023 13.2845 62.8968 12.2375 62.012 11.8393L50.2074 6.58219C49.3152 6.18403 48.2682 6.58956 47.87 7.47435L42.6129 19.2716C42.2147 20.1638 42.6203 21.2108 43.5051 21.6089L55.3097 26.8661Z" fill="#909399"/>
<path d="M93.031 29.4464H80.1131C77.8052 29.4464 75.925 27.5662 75.925 25.2583V12.3404C75.925 10.0325 77.8052 8.15234 80.1131 8.15234H93.031C95.3389 8.15234 97.2191 10.0325 97.2191 12.3404V25.2583C97.2191 27.5662 95.3389 29.4464 93.031 29.4464ZM80.1131 10.5708C79.1398 10.5708 78.3435 11.3671 78.3435 12.3404V25.2583C78.3435 26.2316 79.1398 27.0279 80.1131 27.0279H93.031C94.0043 27.0279 94.8006 26.2316 94.8006 25.2583V12.3404C94.8006 11.3671 94.0043 10.5708 93.031 10.5708H80.1131Z" fill="#909399"/>
<path d="M44.6543 14.7081L42.9142 18.6012C42.8921 18.6454 42.8699 18.6823 42.8478 18.7192L43.5262 22.9072C43.681 23.8731 43.0248 24.78 42.0663 24.9348L29.3105 26.9993C28.846 27.0731 28.3741 26.9625 27.9907 26.6897C27.6073 26.4169 27.3566 26.004 27.2829 25.5394L25.2183 12.7837C25.1446 12.3192 25.2552 11.8473 25.528 11.4639C25.8008 11.0804 26.2137 10.8297 26.6782 10.756L39.434 8.6915C39.5298 8.67675 39.6257 8.66938 39.7142 8.66938C40.5621 8.66938 41.3216 9.28874 41.4616 10.1588L42.1474 14.3763L43.9464 10.3431L43.8506 9.77537C43.4819 7.49703 41.3289 5.94127 39.0506 6.30993L26.2948 8.37445C25.1962 8.54404 24.2229 9.14127 23.5741 10.0482C22.9179 10.9551 22.6598 12.0611 22.8368 13.1671L24.9013 25.9228C25.0782 27.0288 25.6755 27.9947 26.5824 28.651C27.2976 29.1745 28.1455 29.4399 29.0229 29.4399C29.2441 29.4399 29.4727 29.4252 29.7013 29.3883L42.457 27.3238C44.7354 26.9551 46.2911 24.8021 45.9225 22.5238L44.6543 14.7081Z" fill="#909399"/>
<path d="M59.9552 20.7979L61.828 16.6025L61.2971 12.702C61.2307 12.2375 61.3561 11.773 61.6437 11.3969C61.9312 11.0209 62.3441 10.7776 62.816 10.7186L75.616 8.97851C75.6971 8.97113 75.7782 8.96376 75.8593 8.96376C76.2427 8.96376 76.6114 9.0891 76.9284 9.32505C76.9874 9.36929 77.039 9.4209 77.0907 9.46514C77.6584 8.86791 78.4031 8.44026 79.2363 8.25592C79.0003 7.9315 78.7202 7.64394 78.3884 7.39325C77.4962 6.71491 76.3976 6.42735 75.2916 6.57482L62.4768 8.31491C61.3708 8.46238 60.3828 9.03749 59.7119 9.92966C59.0335 10.8218 58.746 11.9204 58.8934 13.0264L59.9552 20.7979Z" fill="#909399"/>
<path d="M81.7355 22.9594L80.0544 10.5723C79.1106 10.6018 78.3511 11.3834 78.3511 12.3345V15.9695L79.3465 23.2838C79.4129 23.7483 79.2875 24.2128 79 24.5889C78.7124 24.9649 78.2995 25.2082 77.8276 25.2672L65.0276 27.0073C64.5631 27.0737 64.0986 26.9483 63.7226 26.6608C63.3465 26.3732 63.1032 25.9603 63.0442 25.4884L62.4544 21.1456L60.5815 25.341L60.6479 25.8128C60.7954 26.9188 61.3705 27.9069 62.2626 28.5778C63 29.1382 63.8774 29.4331 64.7917 29.4331C64.9834 29.4331 65.1751 29.4184 65.3668 29.3963L78.152 27.6709C79.258 27.5234 80.2461 26.9483 80.917 26.0562C81.5954 25.164 81.8829 24.0654 81.7355 22.9594Z" fill="#909399"/>
<path d="M45.621 35.5736L47.4496 32.875H45.9454C45.8643 32.875 45.798 32.8086 45.798 32.7275V32.3662C45.798 32.2851 45.8643 32.2188 45.9454 32.2188H48.4155C48.4966 32.2188 48.5629 32.2851 48.5629 32.3662V32.5063C48.5629 32.5358 48.5556 32.5653 48.5408 32.5874L46.7491 35.286H48.3565C48.4376 35.286 48.504 35.3524 48.504 35.4335V35.7948C48.504 35.8759 48.4376 35.9423 48.3565 35.9423H45.7464C45.6652 35.9423 45.5989 35.8759 45.5989 35.7948V35.6621C45.5915 35.6252 45.6063 35.5957 45.621 35.5736Z" fill="#909399"/>
<path d="M53.3176 34.0546C53.3176 32.9487 54.1287 32.1523 55.2347 32.1523C56.3775 32.1523 57.1517 32.9339 57.1517 34.062C57.1517 35.2049 56.3628 35.9938 55.2199 35.9938C54.0697 35.9938 53.3176 35.2049 53.3176 34.0546ZM56.2743 34.0694C56.2743 33.3984 55.9499 32.8233 55.2199 32.8233C54.4826 32.8233 54.2024 33.4205 54.2024 34.0989C54.2024 34.7404 54.549 35.3302 55.2568 35.3302C55.9868 35.3229 56.2743 34.6961 56.2743 34.0694Z" fill="#909399"/>
<path d="M62.3938 32.2109H62.9395C63.0206 32.2109 63.0869 32.2773 63.0869 32.3584V33.7298H64.6353V32.3584C64.6353 32.2773 64.7017 32.2109 64.7828 32.2109H65.3284C65.4095 32.2109 65.4759 32.2773 65.4759 32.3584V35.787C65.4759 35.8681 65.4095 35.9344 65.3284 35.9344H64.7901C64.709 35.9344 64.6427 35.8681 64.6427 35.787V34.4008H63.0943V35.787C63.0943 35.8681 63.0279 35.9344 62.9468 35.9344H62.4012C62.3201 35.9344 62.2537 35.8681 62.2537 35.787V32.3584C62.2464 32.2773 62.3127 32.2109 62.3938 32.2109Z" fill="#909399"/>
<path d="M70.5725 34.0546C70.5725 32.9487 71.3836 32.1523 72.4896 32.1523C73.6324 32.1523 74.4066 32.9339 74.4066 34.062C74.4066 35.2049 73.6177 35.9938 72.4748 35.9938C71.3246 35.9938 70.5725 35.2049 70.5725 34.0546ZM73.5218 34.0694C73.5218 33.3984 73.1974 32.8233 72.4674 32.8233C71.7301 32.8233 71.4499 33.4205 71.4499 34.0989C71.4499 34.7404 71.7965 35.3302 72.5043 35.3302C73.2343 35.3229 73.5218 34.6961 73.5218 34.0694Z" fill="#909399"/>
</g>
<defs>
<clipPath id="clip0_18_3996">
<rect width="74.47" height="32" fill="white" transform="translate(22.7649 4)"/>
</clipPath>
</defs>
</svg>
