<svg width="120" height="40" viewBox="0 0 120 40" fill="none" xmlns="http://www.w3.org/2000/svg">
<path fill-rule="evenodd" clip-rule="evenodd" d="M59.9996 19.9159C59.9996 25.7269 55.2889 30.4376 49.4779 30.4376C43.6669 30.4376 38.9561 25.7269 38.9561 19.9159C38.9561 14.1049 43.6669 9.39411 49.4779 9.39411C55.2889 9.39411 59.9996 14.1049 59.9996 19.9159ZM59.9272 29.1065C57.377 32.0037 53.6409 33.8317 49.4779 33.8317C41.7924 33.8317 35.562 27.6014 35.562 19.9159C35.562 12.2303 41.7924 6 49.4779 6C53.721 6 57.5205 7.89902 60.073 10.8935C62.6231 7.99632 66.3592 6.16826 70.5223 6.16826C78.2078 6.16826 84.4382 12.3986 84.4382 20.0841C84.4382 27.7696 78.2078 34 70.5223 34C66.2792 34 62.4797 32.101 59.9272 29.1065ZM65.9372 14.7421H62.2885L65.5129 25.2638H68.907L70.8586 20.0878L73.0648 25.2638H76.3741L79.6833 14.7421H75.9498L74.3376 19.9181L72.3011 14.7421H69.4161L67.4645 19.9181L65.9372 14.7421ZM51.0043 14.3147H43.8767V25.5153H50.7857L50.8373 25.5155L50.8889 25.5153H51.0043V25.513C54.02 25.4247 56.4376 22.9523 56.4376 19.9152C56.4376 16.8781 54.02 14.4057 51.0043 14.3174V14.3147ZM50.3318 17.5397H47.2764V22.2915H50.3318H50.6705V22.2675C51.8222 22.1032 52.7077 21.1128 52.7077 19.9156C52.7077 18.7184 51.8222 17.7281 50.6705 17.5637V17.5397H50.3318Z" fill="#909399"/>
</svg>
