<svg width="120" height="40" viewBox="0 0 120 40" fill="none" xmlns="http://www.w3.org/2000/svg">
<g clip-path="url(#clip0_18_4215)">
<path d="M23.12 36.1705C22.1803 36.1314 21.2541 35.991 20.3399 35.7784C15.2713 34.6004 11.0458 30.9995 9.0554 26.1694C8.45272 24.7065 8.07493 23.1865 7.92178 21.6133C7.7569 20.0495 7.89491 18.7202 7.89491 18.7202C7.94318 18.0345 8.0431 17.3564 8.18268 16.6846C9.32021 11.2125 13.2828 6.66133 18.5412 4.77162C20.1812 4.18225 21.8753 3.88978 23.61 3.80603C23.61 3.80603 24.5946 3.7742 25.3789 3.86734C27.2908 4.04032 29.1218 4.51594 30.8633 5.32812C35.53 7.5043 38.88 11.7711 39.8998 16.8237C40.1785 18.2046 40.2732 19.5981 40.1858 20.9999C39.7597 27.8439 35.1752 33.3794 29.1207 35.381C27.7528 35.8332 26.3502 36.1042 24.9098 36.1721C23.9729 36.2376 23.1195 36.1705 23.1195 36.1705H23.12ZM24.2111 19.8932C24.2466 19.9607 24.2839 20.0257 24.3157 20.0933C25.4752 22.5525 26.6338 25.012 27.7927 27.4716C28.0889 28.1003 28.3829 28.7301 28.6845 29.356C28.7283 29.4471 28.7307 29.5922 28.8914 29.5862C29.0357 29.5807 29.037 29.4505 29.0756 29.3641C31.2786 24.4305 33.4791 19.4958 35.6785 14.5606C35.7087 14.4928 35.7627 14.4296 35.7479 14.3482C35.6907 14.2995 35.6273 14.3188 35.5694 14.3188C34.4914 14.3175 33.4133 14.3177 32.3355 14.3177C32.3008 14.3177 32.2659 14.3198 32.2312 14.3182C32.1513 14.3146 32.0994 14.3503 32.0718 14.4247C32.0504 14.4816 32.0279 14.5382 32.0055 14.5945C30.9199 17.341 29.8346 20.0873 28.7479 22.8333C28.7153 22.9154 28.7002 23.0107 28.6237 23.0754C28.5361 22.9942 28.516 22.8977 28.4789 22.8124C27.1509 19.7525 25.8248 16.6922 24.4984 13.6316C24.4741 13.5757 24.4556 13.516 24.4227 13.4659C24.3635 13.3761 24.2489 13.3769 24.1876 13.4661C24.1584 13.5084 24.1414 13.5593 24.12 13.6068C23.6898 14.5562 23.2599 15.5059 22.8299 16.4553C21.8627 18.5921 20.8961 20.7288 19.9279 22.8651C19.8953 22.9371 19.8841 23.0295 19.7849 23.0775C19.7502 22.9906 19.72 22.9199 19.6934 22.8481C19.5191 22.3756 19.3456 21.9026 19.1716 21.4299C18.3046 19.0745 17.4373 16.7188 16.5701 14.3636C16.483 14.1273 16.4819 14.1265 16.2471 14.1265C15.1258 14.126 14.0042 14.126 12.8828 14.1273C12.8095 14.1273 12.7307 14.1095 12.6483 14.162C12.6931 14.2736 12.7328 14.378 12.7764 14.4803C14.5471 18.6262 16.3183 22.772 18.0896 26.9177C18.4376 27.7325 18.7846 28.5478 19.135 29.3613C19.1679 29.4377 19.1768 29.5358 19.2657 29.577C19.4084 29.643 19.6057 29.5697 19.6764 29.4281C19.7074 29.366 19.7356 29.3023 19.7654 29.2394C21.2032 26.1911 22.6407 23.1427 24.0796 20.0948C24.112 20.0262 24.1234 19.9427 24.2116 19.8927L24.2111 19.8932Z" fill="#909399"/>
<path d="M51.4972 19.4614C51.4028 19.5561 51.3931 19.6646 51.3597 19.7606C50.6887 21.6863 50.0195 23.6128 49.3505 25.5391C49.2498 25.8289 49.2832 25.7697 49.0299 25.7707C48.2996 25.7739 47.5696 25.772 46.8394 25.7718C46.6787 25.7718 46.5724 25.6939 46.5205 25.538C45.4908 22.4328 44.4613 19.3273 43.4315 16.222C43.2598 15.7044 43.0879 15.1865 42.917 14.6712C42.9963 14.6284 43.0667 14.6428 43.1348 14.6428C44.065 14.6417 44.9951 14.6417 45.9252 14.6423C46.1415 14.6423 46.1425 14.6433 46.2051 14.851C46.8096 16.8531 47.4139 18.8553 48.0181 20.8574C48.0275 20.8885 48.0374 20.9195 48.051 20.9631C48.1452 20.8924 48.1491 20.7907 48.1775 20.7048C48.8238 18.7616 49.4674 16.8174 50.1118 14.8737C50.1283 14.8241 50.1494 14.7758 50.1606 14.7255C50.1812 14.6342 50.2332 14.6013 50.3273 14.6016C51.1184 14.6042 51.9094 14.6073 52.7002 14.5995C52.8508 14.5979 52.8654 14.6903 52.8983 14.7894C53.2343 15.8025 53.5722 16.8153 53.9079 17.8286C54.2273 18.7924 54.5438 19.757 54.866 20.72C54.8918 20.7974 54.8902 20.894 54.9896 20.9626C55.1373 20.476 55.2826 20.0001 55.4264 19.524C55.895 17.9703 56.363 16.4167 56.8313 14.863C56.8973 14.6438 56.8979 14.6431 57.1288 14.6428C58.0328 14.6425 58.9368 14.6428 59.8408 14.6428H60.024C60.0623 14.7438 60.0094 14.8184 59.9835 14.8964C59.0853 17.6061 58.1865 20.3156 57.2879 23.0253C57.0121 23.8573 56.7372 24.6898 56.4616 25.5221C56.4063 25.6891 56.286 25.7726 56.1006 25.7728C55.3878 25.7728 54.675 25.7739 53.9622 25.7726C53.6457 25.772 53.7167 25.8031 53.6207 25.5304C52.987 23.7297 52.3592 21.9266 51.7297 20.1243C51.6553 19.9114 51.5802 19.6988 51.4972 19.4624V19.4614ZM83.0636 24.6256C82.9621 24.6465 82.9347 24.7065 82.8976 24.7506C81.5605 26.3434 79.3517 26.1078 78.1153 24.9998C77.3874 24.3475 76.964 23.5236 76.7879 22.5765C76.5737 21.4244 76.6412 20.2879 77.1304 19.2067C77.6439 18.0718 78.4798 17.2951 79.7238 17.0399C80.9002 16.7986 81.9459 17.0702 82.8147 17.9294C82.8815 17.9954 82.9339 18.0794 83.0286 18.1211C83.0936 18.0444 83.0617 17.9541 83.062 17.8722C83.0644 16.7331 83.0636 15.5943 83.0636 14.4552C83.0636 14.3944 83.0662 14.3334 83.0636 14.2726C83.0597 14.1927 83.0998 14.1672 83.1737 14.169C83.278 14.1716 83.3824 14.1693 83.4865 14.1693C84.2601 14.1693 85.0339 14.1685 85.8075 14.1698C86.0931 14.1703 86.0592 14.1387 86.0592 14.4166C86.06 16.999 86.0598 19.5814 86.0598 22.1638V25.3982C86.0598 25.459 86.0571 25.52 86.0598 25.5808C86.0637 25.6726 86.017 25.7042 85.9319 25.6979C85.8972 25.6953 85.8625 25.6979 85.8275 25.6979C84.9843 25.6979 84.1411 25.6985 83.2979 25.6979C83.0649 25.6979 83.0644 25.6964 83.0636 25.4517C83.0628 25.184 83.0636 24.916 83.0636 24.6262V24.6256ZM81.1556 23.3684C81.8266 23.3702 82.2287 23.2032 82.5546 22.8742C83.2392 22.1836 83.3015 20.889 82.6874 20.1173C82.0395 19.3033 80.8707 19.248 80.1472 19.9975C79.4621 20.7074 79.4311 21.9994 80.0864 22.7722C80.4191 23.1646 80.8477 23.3629 81.1556 23.3684ZM64.3638 25.9035C63.0306 25.878 61.8398 25.4556 60.8904 24.4652C60.1526 23.6955 59.7626 22.7696 59.7002 21.703C59.5624 19.351 61.2411 17.441 63.4726 17.048C64.7531 16.8226 65.9772 16.9906 67.0772 17.7005C68.5541 18.6541 69.2322 20.0364 69.114 21.7951C68.9935 23.5899 67.6738 25.2761 65.5963 25.7647C65.1968 25.8587 64.7911 25.8954 64.3641 25.9035H64.3638ZM62.6171 21.4231C62.61 21.9144 62.7624 22.3574 63.083 22.7378C63.836 23.6311 65.2383 23.5497 65.8851 22.5773C66.3868 21.8228 66.3114 20.7596 65.7082 20.0847C64.9889 19.2793 63.7058 19.3134 63.0327 20.1577C62.7394 20.5256 62.6105 20.9495 62.6171 21.4233V21.4231ZM73.4207 18.7395C73.4982 18.7175 73.4984 18.6361 73.5266 18.5811C73.7223 18.1986 73.9576 17.8474 74.2877 17.5664C74.7677 17.1576 75.3339 17.0047 75.9522 17C76.0712 16.999 76.0954 17.0509 76.0952 17.156C76.0926 18.1122 76.0923 19.0682 76.0954 20.0244C76.0957 20.1387 76.0553 20.1747 75.9436 20.1726C75.6391 20.1663 75.3367 20.1822 75.0396 20.2623C74.2864 20.4656 73.8191 20.9576 73.5822 21.6882C73.433 22.1486 73.3964 22.6243 73.3936 23.103C73.3889 23.8852 73.3925 24.6676 73.392 25.4498C73.392 25.6959 73.3907 25.6974 73.1595 25.6977C72.3166 25.6985 71.4736 25.6977 70.6309 25.6982C70.3775 25.6982 70.3987 25.7058 70.3987 25.4503V19.7919C70.3987 18.9748 70.3979 18.1579 70.3992 17.3408C70.3995 17.1558 70.4026 17.1521 70.5797 17.1519C71.4574 17.1506 72.3351 17.1519 73.2128 17.1506C73.3936 17.1503 73.3936 17.1485 73.3928 17.3421C73.3909 17.7767 73.3917 18.2114 73.3933 18.6458C73.3933 18.6758 73.3735 18.7149 73.4207 18.7395ZM88.4574 14.6423C88.8206 14.6423 89.1848 14.6444 89.549 14.641C89.6531 14.6399 89.6884 14.6835 89.6797 14.7818C89.6745 14.8421 89.679 14.9034 89.679 14.9642C89.679 18.0496 89.6787 21.135 89.6795 24.2205C89.6795 24.586 89.6432 24.5437 89.9949 24.544C91.8457 24.545 93.6966 24.5445 95.5474 24.5445H95.6518C95.9578 24.5429 95.9017 24.5502 95.904 24.7957C95.9064 25.0392 95.8973 25.2828 95.9072 25.5257C95.9129 25.6672 95.8573 25.7139 95.7261 25.6985C95.6919 25.6945 95.6567 25.6979 95.622 25.6979C93.3193 25.6979 91.0169 25.6985 88.7142 25.6974C88.4193 25.6974 88.4326 25.7467 88.4326 25.4219C88.4326 21.9193 88.4326 18.4167 88.4332 14.9141C88.4332 14.8288 88.4186 14.7414 88.4579 14.6425L88.4574 14.6423ZM106.41 15.3485C106.154 15.293 105.936 15.2408 105.715 15.199C105.457 15.1502 105.195 15.1453 104.936 15.181C104.445 15.2489 104.112 15.5215 103.943 15.9909C103.841 16.2732 103.818 16.5669 103.807 16.8625C103.801 17.0102 103.806 17.1581 103.806 17.3061C103.805 17.5837 103.792 17.5646 104.055 17.5644C104.733 17.5638 105.412 17.5625 106.09 17.5649C106.453 17.5662 106.393 17.5216 106.398 17.861C106.401 18.0609 106.394 18.2612 106.4 18.4608C106.404 18.5743 106.362 18.6116 106.25 18.61C105.893 18.6046 105.537 18.6082 105.18 18.6082C104.78 18.6082 104.38 18.6111 103.981 18.6064C103.874 18.6051 103.815 18.6281 103.829 18.7486C103.836 18.8086 103.83 18.8702 103.83 18.931V25.3742C103.83 25.435 103.827 25.496 103.831 25.5568C103.838 25.6544 103.801 25.6998 103.698 25.6987C103.376 25.6953 103.055 25.6964 102.733 25.6982C102.649 25.6987 102.602 25.6692 102.606 25.5777C102.609 25.5083 102.606 25.4386 102.606 25.3689V18.9516C102.606 18.8908 102.6 18.8292 102.607 18.7692C102.622 18.6463 102.58 18.6004 102.45 18.6054C102.189 18.615 101.928 18.6017 101.668 18.6108C101.535 18.6155 101.481 18.578 101.488 18.4376C101.497 18.2119 101.489 17.9855 101.49 17.7595C101.492 17.544 101.493 17.5427 101.699 17.5411C101.933 17.5393 102.168 17.5419 102.403 17.5404C102.602 17.5391 102.604 17.5375 102.605 17.346C102.606 16.9982 102.601 16.6507 102.639 16.3039C102.673 15.9997 102.742 15.7041 102.861 15.4231C103.174 14.6895 103.743 14.2731 104.517 14.1468C105.089 14.0537 105.66 14.0897 106.223 14.2397C106.358 14.2757 106.424 14.33 106.415 14.4886C106.398 14.7646 106.41 15.0425 106.41 15.3488L106.41 15.3485ZM112.136 24.4863C112.136 24.7871 112.132 25.0898 112.138 25.3922C112.14 25.4931 112.081 25.5247 112.007 25.5584C111.768 25.6669 111.522 25.7504 111.263 25.7885C110.786 25.8584 110.311 25.86 109.841 25.7303C109.048 25.5111 108.596 24.9807 108.432 24.1865C108.386 23.9637 108.376 23.7388 108.376 23.5121C108.377 21.9817 108.376 20.451 108.376 18.9205C108.376 18.8597 108.371 18.7982 108.377 18.7381C108.389 18.6286 108.332 18.6064 108.238 18.6072C107.969 18.6098 107.699 18.6095 107.43 18.6074C107.241 18.6059 107.238 18.6038 107.236 18.4279C107.233 18.1759 107.24 17.9234 107.233 17.6713C107.23 17.5563 107.273 17.5205 107.384 17.5229C107.663 17.5286 107.941 17.519 108.219 17.5273C108.349 17.5312 108.379 17.4824 108.378 17.3609C108.374 16.6914 108.376 16.0217 108.376 15.3522C108.376 15.2914 108.378 15.2303 108.376 15.1695C108.373 15.0902 108.413 15.0652 108.488 15.0657C108.809 15.0673 109.131 15.0694 109.453 15.0647C109.555 15.0631 109.591 15.1015 109.586 15.2011C109.58 15.3138 109.585 15.4271 109.585 15.5403C109.585 16.1404 109.584 16.7404 109.585 17.3405C109.586 17.5208 109.589 17.5242 109.773 17.5247C110.495 17.5263 111.217 17.5247 111.938 17.5257C112.152 17.526 112.153 17.5278 112.155 17.7345C112.157 17.9693 112.148 18.2043 112.158 18.4386C112.163 18.5795 112.108 18.6124 111.976 18.6111C111.28 18.6054 110.584 18.6085 109.889 18.6085C109.828 18.6085 109.767 18.6111 109.706 18.6082C109.62 18.6038 109.576 18.6372 109.584 18.7288C109.588 18.7718 109.585 18.8156 109.585 18.8592C109.585 20.3289 109.585 21.7985 109.585 23.2682C109.585 23.4158 109.588 23.5627 109.615 23.7096C109.726 24.3326 110.095 24.6721 110.725 24.7209C111.147 24.7537 111.557 24.7039 111.95 24.5361C112.004 24.5132 112.055 24.4733 112.136 24.4866L112.136 24.4863ZM98.1079 21.6198V17.8146C98.1079 17.7538 98.1094 17.693 98.1079 17.6322C98.106 17.5552 98.1436 17.5247 98.2185 17.525C98.5485 17.526 98.8786 17.5273 99.2086 17.5239C99.3049 17.5229 99.3263 17.5719 99.3239 17.6525C99.3221 17.7133 99.3239 17.7741 99.3239 17.8349V25.3932C99.3239 25.4193 99.3242 25.4454 99.3239 25.4715C99.3213 25.6959 99.3213 25.6966 99.0972 25.6977C98.8454 25.6987 98.5934 25.6969 98.3416 25.6982C98.0789 25.6995 98.1081 25.6969 98.1081 25.4511V21.6198H98.1079ZM98.0312 14.3965C98.469 14.3965 98.876 14.3991 99.283 14.3947C99.3855 14.3936 99.4189 14.4309 99.4179 14.5303C99.4142 14.8946 99.415 15.2588 99.4173 15.6233C99.4179 15.7094 99.3889 15.7467 99.2976 15.7459C98.9161 15.7425 98.5344 15.7427 98.153 15.7459C98.063 15.7467 98.0301 15.7104 98.0306 15.624C98.0322 15.2262 98.0314 14.828 98.0314 14.3962L98.0312 14.3965Z" fill="#909399"/>
</g>
<defs>
<clipPath id="clip0_18_4215">
<rect width="104.317" height="36" fill="white" transform="translate(7.84131 2)"/>
</clipPath>
</defs>
</svg>
