<svg width="120" height="40" viewBox="0 0 120 40" fill="none" xmlns="http://www.w3.org/2000/svg">
<g clip-path="url(#clip0_18_3959)">
<path d="M70.3209 25.0191C69.8626 25.6772 69.2056 26.1713 68.4461 26.429C67.6867 26.6867 66.8647 26.6944 66.1005 26.4511C65.3363 26.2077 64.6701 25.7261 64.1995 25.0768C63.7289 24.4274 63.4785 23.6444 63.4851 22.8425C63.4916 22.0405 63.7548 21.2618 64.236 20.6202C64.7173 19.9787 65.3913 19.508 66.1593 19.2773C66.9274 19.0465 67.7492 19.0678 68.5043 19.3379C69.2594 19.6079 69.9082 20.1127 70.3557 20.7783L73.1305 19.14C72.3225 17.8653 71.1228 16.8872 69.7116 16.3525C68.3003 15.8178 66.7537 15.7553 65.3039 16.1746C63.8542 16.5938 62.5795 17.472 61.6715 18.6774C60.7634 19.8828 60.2709 21.3503 60.2679 22.8594C60.2649 24.3686 60.7516 25.838 61.6549 27.0469C62.5583 28.2559 63.8294 29.1391 65.2775 29.5641C66.7256 29.989 68.2725 29.9327 69.6858 29.4036C71.0992 28.8744 72.3027 27.901 73.1157 26.6296L70.3209 25.0191ZM77.9661 10H74.747V29.3096H77.9644V22.873C77.9644 21.8772 78.36 20.9222 79.0641 20.218C79.7683 19.5139 80.7233 19.1183 81.7192 19.1183C82.715 19.1183 83.67 19.5139 84.3742 20.218C85.0784 20.9222 85.4739 21.8772 85.4739 22.873V29.3096H88.6922V22.247C88.6917 21.0047 88.3268 19.7899 87.6426 18.7531C86.9584 17.7162 85.9849 16.9029 84.843 16.414C83.701 15.925 82.4407 15.7818 81.2181 16.0022C79.9956 16.2227 78.8646 16.7969 77.9653 17.6539L77.9661 10ZM55.4392 10H52.2209V25.0183C52.2208 25.9451 52.4875 26.8524 52.9892 27.6318C53.4909 28.4111 54.2064 29.0295 55.0502 29.4131C55.8939 29.7967 56.8303 29.9292 57.7474 29.7949C58.6644 29.6606 59.5235 29.2651 60.2218 28.6557L58.667 26.0174C58.5165 26.2076 58.3249 26.3613 58.1065 26.4668C57.8881 26.5724 57.6487 26.6272 57.4061 26.627H57.0479C56.6213 26.6267 56.2122 26.4572 55.9106 26.1555C55.609 25.8539 55.4394 25.4448 55.4392 25.0183V19.6548H58.6566V16.4365H55.4392V10ZM48.4687 10C47.9946 10 47.5398 10.1884 47.2046 10.5236C46.8693 10.8589 46.6809 11.3137 46.6809 11.7878C46.6809 12.262 46.8693 12.7167 47.2046 13.052C47.5398 13.3873 47.9946 13.5757 48.4687 13.5757C48.9429 13.5757 49.3976 13.3873 49.7329 13.052C50.0682 12.7167 50.2566 12.262 50.2566 11.7878C50.2566 11.3137 50.0682 10.8589 49.7329 10.5236C49.3976 10.1884 48.9429 10 48.4687 10ZM50.0774 29.3096V16.4365H46.86V29.3096H50.0774Z" fill="#909399"/>
<path fill-rule="evenodd" clip-rule="evenodd" d="M31.304 29.3096H34.5213V25.5548H37.4718C38.4931 25.5548 39.5045 25.3536 40.4481 24.9628C41.3917 24.5719 42.249 23.999 42.9712 23.2768C43.6934 22.5546 44.2663 21.6973 44.6572 20.7537C45.048 19.8101 45.2492 18.7987 45.2492 17.7774C45.2492 16.756 45.048 15.7447 44.6572 14.8011C44.2663 13.8575 43.6934 13.0001 42.9712 12.2779C42.249 11.5557 41.3917 10.9829 40.4481 10.592C39.5045 10.2012 38.4931 10 37.4718 10H31.304V29.3096ZM34.5213 13.2174H37.4718C38.6809 13.2174 39.8406 13.6977 40.6956 14.5527C41.5506 15.4077 42.0309 16.5674 42.0309 17.7765C42.0309 18.9857 41.5506 20.1453 40.6956 21.0003C39.8406 21.8553 38.6809 22.3357 37.4718 22.3357H34.5222L34.5213 13.2174Z" fill="#909399"/>
</g>
<defs>
<clipPath id="clip0_18_3959">
<rect width="57.3913" height="20" fill="white" transform="translate(31.3044 10)"/>
</clipPath>
</defs>
</svg>
