<svg width="120" height="40" viewBox="0 0 120 40" fill="none" xmlns="http://www.w3.org/2000/svg">
<g clip-path="url(#clip0_18_4212)">
<path d="M19.9688 18.8175C19.5817 17.9765 19.3811 17.5401 19.1102 16.8856C18.8603 17.5401 18.7758 17.7407 18.3043 18.8668L17.3823 21.1331H21.0104L19.9688 18.8175ZM16.3407 23.9377L15.0457 26.7952H11.2627L17.8503 12.9196H21.0421L27.6263 26.7952H23.8996L22.492 23.9377H16.3407ZM37.0503 18.9336C37.8209 18.9336 38.1412 18.8844 38.4579 18.7155C38.7056 18.5725 38.9119 18.3675 39.0561 18.1207C39.2004 17.8739 39.2782 17.5938 39.2814 17.3078C39.2768 17.0222 39.1987 16.7426 39.0544 16.496C38.9101 16.2495 38.7046 16.0442 38.4579 15.9002C38.1553 15.7313 37.835 15.6961 37.0503 15.6961H32.4298V18.9055L37.0503 18.9336ZM32.4298 26.7952H28.9529V12.9196H38.0075C39.6192 12.9196 40.4919 13.1237 41.3154 13.6234C41.8383 13.9551 42.2683 14.4143 42.565 14.9578C42.8616 15.5014 43.0154 16.1115 43.0115 16.7307C43.0115 18.3776 42.1564 19.6023 40.594 20.2498C41.9699 20.7389 42.3922 21.5096 42.4239 23.6773C42.4907 25.4087 42.5928 25.9119 43.0115 26.8022H39.1828C38.9294 26.0281 38.8802 25.7113 38.9154 24.3811C38.9154 22.3682 38.3594 21.7454 36.5787 21.7454H32.4298V26.7952ZM59.2696 26.7952V12.9196H71.9663V15.7348H62.7464V18.3389H70.893V21.1542H62.7464V24.0116H71.9663V26.8269L59.2696 26.7952ZM82.0449 26.7952H78.568V15.7243H73.7645V12.909H86.8308V15.7243H82.0449V26.7952ZM103.863 21.3688C102.871 25.3172 100.168 27.2984 95.6847 27.2984C90.5786 27.2984 87.3516 24.4586 87.3516 19.9929C87.3516 15.4181 90.6771 12.434 95.7656 12.434C98.2043 12.434 100.119 13.0709 101.628 14.4328C102.655 15.2866 103.37 16.4558 103.662 17.7583H99.9146C99.2108 15.9988 97.8348 15.1366 95.7516 15.1366C92.961 15.1366 91.0325 17.1037 91.0325 19.926C91.0325 22.6779 92.9469 24.5958 95.6847 24.5958C97.9017 24.5958 99.2284 23.6034 100.034 21.3688H103.863ZM116.243 12.9196V18.3284H109.092V12.9196H105.615V26.7952H109.092V21.1331H116.232V26.7952H119.706V12.9196H116.243ZM0.00170898 26.7952V12.9196H12.1776V15.7348H3.47853V18.3389H11.4562V21.1542H3.47853V26.7952H0.00170898ZM45.2954 26.7952V12.9196H57.4748V15.7348H48.7722V18.3389H56.7675V21.1542H48.7722V26.7952H45.2954Z" fill="#909399"/>
</g>
<defs>
<clipPath id="clip0_18_4212">
<rect width="120" height="15.1319" fill="white" transform="translate(0.000244141 12.434)"/>
</clipPath>
</defs>
</svg>
