<svg width="120" height="40" viewBox="0 0 120 40" fill="none" xmlns="http://www.w3.org/2000/svg">
<g clip-path="url(#clip0_18_4162)">
<path fill-rule="evenodd" clip-rule="evenodd" d="M10.2697 22.1459C10.4315 21.9841 10.4315 21.7116 10.2697 21.5498C10.2697 21.5498 7.17854 18.4502 7.16151 18.4502C7.07635 18.365 7.03378 18.2628 7.03378 18.1521C7.04229 18.0414 7.08487 17.9392 7.16151 17.8541L13.5141 11.5016C13.5992 11.4164 13.6503 11.3142 13.6503 11.1865C13.6503 10.9566 13.4629 10.7692 13.2331 10.7692H7.05081C6.94011 10.7692 6.82941 10.8203 6.75277 10.897L0.349135 17.3006C0.136248 17.522 0 17.82 0 18.1521C0 18.4842 0.127732 18.7738 0.340618 18.9951L6.58246 25.237C6.74425 25.3988 7.01675 25.3988 7.17854 25.237L10.2697 22.1459ZM14.5274 17.8541C14.3656 18.0159 14.3656 18.2884 14.5274 18.4502L17.6355 21.5498C17.7122 21.635 17.7548 21.7371 17.7548 21.8479C17.7548 21.9586 17.7207 22.0693 17.6355 22.1459L11.283 28.4985C11.1978 28.5751 11.1468 28.6858 11.1468 28.8135C11.1468 29.0435 11.3341 29.2308 11.564 29.2308H17.7462C17.8569 29.2308 17.9676 29.1797 18.0443 29.1031L24.4479 22.6995C24.6608 22.478 24.7971 22.18 24.7971 21.8479C24.7971 21.5158 24.6608 21.2262 24.4565 21.0048L18.2146 14.763C18.0528 14.6012 17.7803 14.6012 17.6185 14.763L14.5274 17.8541ZM39.5288 15.4698C38.4814 15.1036 36.8549 14.7885 35.4669 14.7885C32.9548 14.7885 31.371 15.9807 31.371 17.9648C31.371 19.719 32.4184 20.4513 34.6665 20.9197C34.7958 20.9465 34.9238 20.9721 35.0493 20.9972C36.156 21.2184 37.0764 21.4023 37.0764 22.1288C37.0764 22.7079 36.5143 22.9975 35.4499 22.9889C34.5643 22.9719 33.2444 22.7335 31.635 22.1288L31.0729 24.3344C32.6398 24.9219 34.2662 25.2029 35.5521 25.2029C38.0812 25.2029 39.7502 24.113 39.7502 21.9671C39.7502 20.0341 38.3792 19.3784 36.31 18.9355C36.2152 18.9157 36.1232 18.8966 36.0338 18.8781L36.0325 18.8778C34.7833 18.6191 34.0789 18.4732 34.0789 17.8456C34.0789 17.224 34.6068 16.96 35.484 16.96C36.344 16.96 37.5958 17.1984 39.0008 17.6242L39.5288 15.4698ZM42.6539 15.0695C43.8376 15.0099 45.1575 14.9503 46.5285 14.9503C49.1853 14.9503 50.8969 16.1765 50.8969 18.5268C50.8969 20.8175 49.1768 22.2651 46.52 22.2651H45.1319V24.9475H42.6539V15.0695ZM45.1405 17.0196V20.0937H46.6732C47.6951 20.0937 48.4189 19.5231 48.4189 18.5438C48.4189 17.539 47.6951 16.994 46.6732 16.994C46.1623 16.994 45.6428 17.0025 45.1405 17.0196ZM70.8402 15.0696V20.7835L66.1822 15.0696H63.8915V24.9475H66.3695V19.2848L71.036 24.9475H73.3097V15.0696H70.8402ZM76.6052 15.061C77.6954 15.0014 78.9554 14.9418 80.3431 14.9418C83.6131 14.9418 85.8108 16.7981 85.8015 19.9488C85.8015 23.1251 83.6046 25.0751 80.5908 25.0751C79.1 25.0751 77.6954 25.0156 76.6052 24.956V15.061ZM79.0915 22.8015C79.6108 22.8271 80.1562 22.8271 80.6585 22.8271C82.0892 22.8271 83.2385 21.7201 83.2469 19.9233C83.2469 18.1691 82.0977 17.1643 80.4538 17.1643C80.02 17.1643 79.5515 17.1643 79.0915 17.1899V22.8015ZM107.244 15.4698C106.196 15.1036 104.57 14.7885 103.182 14.7885C100.67 14.7885 99.0862 15.9807 99.0862 17.9648C99.0862 19.719 100.133 20.4513 102.382 20.9197C102.511 20.9465 102.638 20.9721 102.765 20.9972C103.871 21.2184 104.792 21.4023 104.792 22.1288C104.792 22.7079 104.229 22.9975 103.165 22.9889C102.279 22.9719 100.959 22.7335 99.35 22.1288L98.7877 24.3344C100.355 24.9219 101.982 25.2029 103.267 25.2029C105.796 25.2029 107.465 24.113 107.465 21.9671C107.465 20.0341 106.094 19.3784 104.025 18.9355C103.93 18.9156 103.837 18.8965 103.748 18.8778C102.498 18.6191 101.794 18.4732 101.794 17.8456C101.794 17.224 102.322 16.96 103.199 16.96C104.059 16.96 105.311 17.1984 106.716 17.6242L107.244 15.4698ZM114.405 21.6009H112.855V24.9475H110.378V15.0696H112.864V19.174H113.349L116.628 15.0696H119.642L115.989 19.6168L119.872 24.9475H116.832L114.405 21.6009ZM55.8189 18.9526V17.1643H60.9282V15.061H53.3324V24.939H60.9282V22.8357H55.8189V21.0474H60.0852V18.9526H55.8189ZM91.1238 17.1643V18.9526H95.39V21.0474H91.1238V22.8357H96.2331V24.939H88.6377V15.061H96.2331V17.1643H91.1238Z" fill="#909399"/>
</g>
<defs>
<clipPath id="clip0_18_4162">
<rect width="120" height="18.4615" fill="white" transform="translate(0 10.7692)"/>
</clipPath>
</defs>
</svg>
