<svg width="120" height="40" viewBox="0 0 120 40" fill="none" xmlns="http://www.w3.org/2000/svg">
<g clip-path="url(#clip0_18_4029)">
<mask id="mask0_18_4029" style="mask-type:luminance" maskUnits="userSpaceOnUse" x="15" y="12" width="90" height="16">
<path d="M104.139 12.002H15.8635V27.9741H104.139V12.002Z" fill="white"/>
</mask>
<g mask="url(#mask0_18_4029)">
<path d="M63.8889 26.9004H75.2805V25.5089H65.8418V21.0565H72.9313V19.6486H65.8418V15.5465H75.2805V14.1602H63.8889V26.9004Z" fill="#909399"/>
<path d="M69.8091 12.0996L68.2668 13.8322L73.1084 12.0996H69.8091Z" fill="#909399"/>
<path d="M94.4038 25.5089V14.1602H92.6233V26.9004H104.139V25.5089H94.4038Z" fill="#909399"/>
<path d="M82.6619 14.1602L76.1838 26.9004H78.3735L80.0308 23.6028H87.8002L89.4716 26.9004H91.6386L85.1554 14.1602H82.6619ZM80.8508 22.0059L83.9033 15.9206L86.9917 22.0059H80.8508Z" fill="#909399"/>
<path d="M57.707 21.573C60.6257 20.7942 60.9093 18.6225 60.8945 17.8461C60.7203 15.5701 59.1868 14.1602 56.4314 14.1602H48.4016V26.9004H50.2321V21.556H55.4597L59.3056 26.9004H61.6128C61.6128 26.9004 58.8451 23.3036 57.707 21.573ZM56.1815 20.0507H50.2321V15.6681H56.3888C57.8063 15.6681 58.6037 16.3299 58.8909 17.1705C59.0809 17.7467 58.9591 18.5031 58.6447 19.0181C58.1302 19.8695 57.1527 20.0507 56.1815 20.0507Z" fill="#909399"/>
<path d="M37.4022 12.002C32.235 12.002 28.7131 15.6452 28.7131 20.0548C28.7131 24.697 32.6036 27.9741 37.4022 27.9741C42.1977 27.9741 46.0866 24.7438 46.0866 20.0548C46.0866 15.6452 42.5211 12.002 37.4022 12.002ZM37.3402 26.3927C33.7653 26.3927 30.8197 23.5199 30.8197 20.0591C30.8197 16.6031 33.6262 13.5927 37.4788 13.5927C41.2359 13.5927 43.9978 16.6031 43.9978 20.0591C43.9978 23.5197 40.9136 26.3927 37.3402 26.3927Z" fill="#909399"/>
<path d="M24.1018 18.6672H25.4226L27.8201 14.1602H25.8908L24.1018 18.6672Z" fill="#909399"/>
<path d="M17.645 25.5089V14.1602H15.8635V26.9004H27.379V25.5089H17.645Z" fill="#909399"/>
</g>
</g>
<defs>
<clipPath id="clip0_18_4029">
<rect width="88.2759" height="16" fill="white" transform="translate(15.8621 12)"/>
</clipPath>
</defs>
</svg>
