<svg width="120" height="40" viewBox="0 0 120 40" fill="none" xmlns="http://www.w3.org/2000/svg">
<g clip-path="url(#clip0_18_3884)">
<mask id="mask0_18_3884" style="mask-type:luminance" maskUnits="userSpaceOnUse" x="26" y="7" width="68" height="25">
<path d="M93.0535 7.99805H26.9482V31.998H93.0535V7.99805Z" fill="white"/>
</mask>
<g mask="url(#mask0_18_3884)">
<mask id="mask1_18_3884" style="mask-type:luminance" maskUnits="userSpaceOnUse" x="26" y="7" width="68" height="25">
<path d="M93.0545 7.99805H26.9492V31.998H93.0545V7.99805Z" fill="white"/>
</mask>
<g mask="url(#mask1_18_3884)">
<mask id="mask2_18_3884" style="mask-type:luminance" maskUnits="userSpaceOnUse" x="27" y="7" width="67" height="25">
<path d="M93.0559 7.99805H27.1611V31.998H93.0559V7.99805Z" fill="white"/>
</mask>
<g mask="url(#mask2_18_3884)">
<mask id="mask3_18_3884" style="mask-type:luminance" maskUnits="userSpaceOnUse" x="27" y="7" width="67" height="25">
<path d="M93.0559 7.99805H27.1611V31.998H93.0559V7.99805Z" fill="white"/>
</mask>
<g mask="url(#mask3_18_3884)">
<mask id="mask4_18_3884" style="mask-type:luminance" maskUnits="userSpaceOnUse" x="27" y="7" width="67" height="25">
<path d="M93.0568 7.99805H27.1621V31.998H93.0568V7.99805Z" fill="white"/>
</mask>
<g mask="url(#mask4_18_3884)">
<path d="M47.7712 27.8254V30.3539H47.0035V30.1164C46.8338 30.3076 46.5827 30.4255 46.2413 30.4255C45.5693 30.4255 45.0166 29.8431 45.0166 29.0897C45.0166 28.3361 45.5693 27.7539 46.2413 27.7539C46.5827 27.7539 46.8338 27.87 47.0035 28.0646V27.8254H47.7712ZM47.0035 29.0897C47.0035 28.7111 46.7471 28.4736 46.393 28.4736C46.0407 28.4736 45.7825 28.7111 45.7825 29.0897C45.7825 29.4682 46.0371 29.7076 46.393 29.7076C46.7471 29.7076 47.0035 29.4718 47.0035 29.0897Z" fill="#909399"/>
<path d="M52.0956 27.8242L51.1471 30.3527H50.2783L49.3301 27.8242H50.1772L50.7084 29.4295L51.2391 27.8242H52.0956Z" fill="#909399"/>
<path d="M54.9002 27.8254V30.3539H54.1327V30.1164C53.9626 30.3076 53.7118 30.4255 53.3701 30.4255C52.6984 30.4255 52.1455 29.8431 52.1455 29.0897C52.1455 28.3361 52.6984 27.7539 53.3701 27.7539C53.7118 27.7539 53.9626 27.87 54.1327 28.0646V27.8254H54.9002ZM54.1327 29.0897C54.1327 28.7111 53.876 28.4736 53.5221 28.4736C53.1697 28.4736 52.9114 28.7111 52.9114 29.0897C52.9114 29.4682 53.1661 29.7076 53.5221 29.7076C53.876 29.7076 54.1327 29.4718 54.1327 29.0897Z" fill="#909399"/>
<path d="M55.4619 26.6621H56.2314V30.3567H55.4619V26.6621Z" fill="#909399"/>
<path d="M59.4196 27.8254V30.3539H58.6518V30.1164C58.4821 30.3076 58.2311 30.4255 57.8897 30.4255C57.2177 30.4255 56.665 29.8431 56.665 29.0897C56.665 28.3361 57.2177 27.7539 57.8897 27.7539C58.2311 27.7539 58.4821 27.87 58.6518 28.0646V27.8254H59.4196ZM58.6518 29.0897C58.6518 28.7111 58.3954 28.4736 58.0413 28.4736C57.6855 28.4736 57.4307 28.7111 57.4307 29.0897C57.4307 29.4682 57.6855 29.7076 58.0413 29.7076C58.3954 29.7076 58.6518 29.4718 58.6518 29.0897Z" fill="#909399"/>
<path d="M62.4398 28.8023V30.3557H61.672V28.9148C61.672 28.6005 61.4715 28.4541 61.2259 28.4541C60.9442 28.4541 60.7507 28.6184 60.7507 28.9755V30.3557H59.9814V27.8273H60.7507V28.0666C60.8882 27.8791 61.1448 27.7559 61.4825 27.7559C61.9991 27.7523 62.4398 28.1166 62.4398 28.8023Z" fill="#909399"/>
<path d="M63.9384 28.5584V29.4531C63.9384 29.6727 64.1281 29.6922 64.4658 29.6727V30.36C63.4635 30.4619 63.1708 30.1619 63.1708 29.4531V28.5584H62.7607V27.8281H63.1708V27.3477L63.9384 27.1191V27.8281H64.4658V28.5584H63.9384Z" fill="#909399"/>
<path d="M64.8252 27.1448C64.8252 26.8966 65.0349 26.6895 65.2877 26.6895C65.5389 26.6895 65.7484 26.8966 65.7484 27.1448C65.7484 27.3948 65.5389 27.6019 65.2877 27.6019C65.0349 27.6019 64.8252 27.3948 64.8252 27.1448ZM64.901 27.8234H65.6707V30.3519H64.901V27.8234Z" fill="#909399"/>
<path d="M66.1055 29.0897C66.1055 28.3361 66.6853 27.7539 67.4602 27.7539C67.957 27.7539 68.3977 28.0128 68.6181 28.4021L67.9499 28.7861C67.8632 28.6093 67.677 28.5039 67.453 28.5039C67.1187 28.5039 66.8749 28.7414 66.8749 29.0897C66.8749 29.4379 67.1187 29.6754 67.453 29.6754C67.677 29.6754 67.8667 29.5701 67.9499 29.3933L68.6181 29.7718C68.3977 30.1665 67.9642 30.4255 67.4602 30.4255C66.6853 30.4255 66.1055 29.8431 66.1055 29.0897Z" fill="#909399"/>
<path d="M70.1006 29.0897C70.1006 28.3361 70.6804 27.7539 71.4553 27.7539C71.952 27.7539 72.3928 28.0128 72.6132 28.4021L71.9412 28.7861C71.8545 28.6093 71.6686 28.5039 71.4446 28.5039C71.1105 28.5039 70.8665 28.7414 70.8665 29.0897C70.8665 29.4379 71.1105 29.6754 71.4446 29.6754C71.6686 29.6754 71.8581 29.5701 71.9412 29.3933L72.6132 29.7718C72.3928 30.1665 71.9593 30.4255 71.4553 30.4255C70.6804 30.4255 70.1006 29.8431 70.1006 29.0897Z" fill="#909399"/>
<path d="M72.7451 29.0897C72.7451 28.3361 73.3483 27.7539 74.0999 27.7539C74.8512 27.7539 75.4546 28.3361 75.4546 29.0897C75.4546 29.8431 74.8512 30.4255 74.0999 30.4255C73.3483 30.4255 72.7451 29.8431 72.7451 29.0897ZM74.6885 29.0897C74.6885 28.7325 74.4342 28.4932 74.0999 28.4932C73.7655 28.4932 73.5106 28.7325 73.5106 29.0897C73.5106 29.4486 73.7655 29.6861 74.0999 29.6861C74.4342 29.6861 74.6885 29.4505 74.6885 29.0897Z" fill="#909399"/>
<path d="M79.7297 28.8023V30.3557H78.9603V28.8666C78.9603 28.6148 78.8352 28.4505 78.5916 28.4505C78.3369 28.4505 78.1906 28.6291 78.1906 28.9273V30.3557H77.4228V28.8666C77.4228 28.6148 77.2984 28.4505 77.0546 28.4505C76.798 28.4505 76.6533 28.6291 76.6533 28.9273V30.3557H75.8857V27.8273H76.6569V28.0594C76.7744 27.888 76.9982 27.7559 77.3436 27.7559C77.647 27.7559 77.8708 27.8791 78.0156 28.0898C78.1598 27.888 78.3946 27.7559 78.7558 27.7559C79.3468 27.7523 79.7297 28.1684 79.7297 28.8023Z" fill="#909399"/>
<path d="M83.0116 29.0897C83.0116 29.8431 82.4592 30.4255 81.7872 30.4255C81.4459 30.4255 81.1947 30.3093 81.0246 30.1164V31.3665H80.2568V27.8254H81.0246V28.0646C81.1947 27.8736 81.4459 27.7539 81.7872 27.7539C82.4592 27.7539 83.0116 28.3361 83.0116 29.0897ZM82.2421 29.0897C82.2421 28.7111 81.9874 28.4736 81.6318 28.4736C81.2794 28.4736 81.0215 28.7111 81.0215 29.0897C81.0215 29.4682 81.2777 29.7076 81.6318 29.7076C81.9874 29.7076 82.2421 29.4718 82.2421 29.0897Z" fill="#909399"/>
<path d="M86.0721 27.8254V30.3539H85.3039V30.1164C85.1342 30.3076 84.8831 30.4255 84.542 30.4255C83.8736 30.4255 83.3174 29.8431 83.3174 29.0897C83.3174 28.3361 83.87 27.7539 84.542 27.7539C84.8831 27.7539 85.1342 27.87 85.3039 28.0646V27.8254H86.0721ZM85.3039 29.0897C85.3039 28.7111 85.0496 28.4736 84.6936 28.4736C84.3412 28.4736 84.0833 28.7111 84.0833 29.0897C84.0833 29.4682 84.338 29.7076 84.6936 29.7076C85.0496 29.7076 85.3039 29.4718 85.3039 29.0897Z" fill="#909399"/>
<path d="M89.0918 28.8023V30.3557H88.324V28.9148C88.324 28.6005 88.1233 28.4541 87.8779 28.4541C87.5955 28.4541 87.4025 28.6184 87.4025 28.9755V30.3557H86.6328V27.8273H87.4025V28.0666C87.5396 27.8791 87.7964 27.7559 88.1341 27.7559C88.6509 27.7523 89.0918 28.1166 89.0918 28.8023Z" fill="#909399"/>
<path d="M91.9991 27.8242L91.1229 30.2777C90.8376 31.0832 90.3827 31.4028 89.6654 31.3653V30.6562C90.0246 30.6562 90.193 30.5438 90.3069 30.2367L89.29 27.8242H90.1351L90.7039 29.3725L91.1862 27.8242H91.9991Z" fill="#909399"/>
<mask id="mask5_18_3884" style="mask-type:luminance" maskUnits="userSpaceOnUse" x="28" y="8" width="23" height="18">
<path d="M50.3207 8.41992H28.0049V25.0515H50.3207V8.41992Z" fill="white"/>
</mask>
<g mask="url(#mask5_18_3884)">
<path d="M46.3154 24.9034V14.8837C46.3154 13.1926 45.9469 12.1373 44.5289 12.1373C42.8346 12.1373 41.0789 14.2498 41.0789 17.3283V24.9034H37.2892V14.8837C37.2892 13.3141 36.9821 12.1373 35.5028 12.1373C33.7163 12.1373 32.0527 14.3712 32.0527 17.3283V24.9034H28.1709V9.08906H31.8377C31.8377 10.0248 31.7745 10.9891 31.621 11.9248H31.6824C32.5458 9.99442 34.4858 8.72656 36.6425 8.72656C39.2924 8.72656 40.4322 10.3855 40.8025 11.9248C41.6334 9.99442 43.5752 8.72656 45.6994 8.72656C48.5968 8.72656 50.1972 10.4158 50.1972 14.0087V24.9034H46.3154Z" fill="#909399"/>
</g>
<mask id="mask6_18_3884" style="mask-type:luminance" maskUnits="userSpaceOnUse" x="54" y="8" width="23" height="18">
<path d="M76.8457 8.41992H54.3193V25.0515H76.8457V8.41992Z" fill="white"/>
</mask>
<g mask="url(#mask6_18_3884)">
<path d="M72.7159 24.9034V14.8837C72.7159 13.1926 72.3455 12.1373 70.9293 12.1373C69.2331 12.1373 67.4773 14.2498 67.4773 17.3283V24.9034H63.6588V14.8837C63.6588 13.3141 63.35 12.1373 61.8706 12.1373C60.0841 12.1373 58.4205 14.3712 58.4205 17.3283V24.9034H54.5693V9.08906H58.2363C58.2363 10.0248 58.1748 10.9891 58.0194 11.9248H58.0828C58.9443 9.99442 60.8862 8.72656 63.0409 8.72656C65.691 8.72656 66.8308 10.3855 67.2011 11.9248C68.0319 9.99442 69.9738 8.72656 72.0997 8.72656C74.995 8.72656 76.5973 10.4158 76.5973 14.0087V24.9034H72.7159Z" fill="#909399"/>
</g>
<mask id="mask7_18_3884" style="mask-type:luminance" maskUnits="userSpaceOnUse" x="79" y="8" width="9" height="18">
<path d="M87.3721 8.41992H79.3721V25.0515H87.3721V8.41992Z" fill="white"/>
</mask>
<g mask="url(#mask7_18_3884)">
<path d="M83.2854 24.9019V12.4376L80.2037 13.7644L79.5879 10.384L84.2698 8.54297H87.2593V24.9019H83.2854Z" fill="#909399"/>
</g>
</g>
</g>
</g>
</g>
</g>
</g>
<defs>
<clipPath id="clip0_18_3884">
<rect width="66.1053" height="24" fill="white" transform="translate(26.9473 8)"/>
</clipPath>
</defs>
</svg>
