<svg width="120" height="40" viewBox="0 0 120 40" fill="none" xmlns="http://www.w3.org/2000/svg">
<g clip-path="url(#clip0_18_4116)">
<mask id="mask0_18_4116" style="mask-type:luminance" maskUnits="userSpaceOnUse" x="20" y="8" width="80" height="24">
<path d="M99.7567 8H20.2402V32H99.7567V8Z" fill="white"/>
</mask>
<g mask="url(#mask0_18_4116)">
<path d="M69.5597 26.7478C64.9445 30.1497 58.2548 31.9648 52.4952 31.9648C44.4192 31.9648 37.1488 28.9777 31.6484 24.0098C31.2163 23.6191 31.6035 23.0867 32.1221 23.391C38.058 26.8446 45.3976 28.9224 52.9791 28.9224C58.0923 28.9224 63.7172 27.8645 68.889 25.6692C69.6703 25.3373 70.3238 26.1809 69.5597 26.7478Z" fill="#909399"/>
<path d="M71.478 24.5546C70.8903 23.8009 67.5783 24.1985 66.0917 24.3748C65.6389 24.4301 65.5697 24.0359 65.9777 23.7525C68.6154 21.896 72.9439 22.4319 73.4485 23.0542C73.9533 23.6799 73.3172 28.0186 70.8385 30.0895C70.4582 30.4075 70.0951 30.2381 70.2646 29.8164C70.8212 28.4266 72.0692 25.3116 71.478 24.5546Z" fill="#909399"/>
<path d="M66.1964 10.6459V8.84123C66.1964 8.56812 66.4038 8.38489 66.6527 8.38489H74.7321C74.9913 8.38489 75.1988 8.57157 75.1988 8.84123V10.3866C75.1953 10.6459 74.9775 10.9847 74.5903 11.5205L70.4037 17.498C71.9594 17.4599 73.6016 17.6916 75.0122 18.4867C75.3302 18.6665 75.4166 18.9292 75.4408 19.1885V21.1142C75.4408 21.3769 75.1504 21.6846 74.8462 21.5256C72.3604 20.2222 69.0589 20.0805 66.3105 21.5394C66.0304 21.6916 65.7366 21.3872 65.7366 21.1245V19.2957C65.7366 19.0019 65.74 18.5006 66.0338 18.0546L70.8843 11.0988H66.6631C66.4038 11.0988 66.1964 10.9155 66.1964 10.6459Z" fill="#909399"/>
<path d="M36.7236 21.9051H34.2655C34.0304 21.8878 33.8437 21.7115 33.8264 21.4867V8.87156C33.8264 8.61919 34.0374 8.41867 34.3001 8.41867H36.5922C36.8308 8.42903 37.0209 8.61227 37.0382 8.84044V10.4895H37.0832C37.6812 8.89576 38.8048 8.15247 40.3191 8.15247C41.8574 8.15247 42.8185 8.89576 43.51 10.4895C44.1046 8.89576 45.4564 8.15247 46.905 8.15247C47.9351 8.15247 49.0622 8.5777 49.7502 9.53188C50.528 10.5932 50.369 12.1351 50.369 13.4869L50.3656 21.4487C50.3656 21.7011 50.1546 21.9051 49.8919 21.9051H47.4373C47.1919 21.8878 46.9948 21.6907 46.9948 21.4487V14.7626C46.9948 14.2302 47.0432 12.9026 46.9257 12.3979C46.7424 11.5509 46.1927 11.3123 45.4805 11.3123C44.8859 11.3123 44.2636 11.7099 44.0113 12.346C43.7589 12.9821 43.7831 14.0469 43.7831 14.7626V21.4487C43.7831 21.7011 43.5723 21.9051 43.3094 21.9051H40.8549C40.606 21.8878 40.4123 21.6907 40.4123 21.4487L40.4089 14.7626C40.4089 13.3555 40.6406 11.2847 38.8946 11.2847C37.128 11.2847 37.1972 13.3036 37.1972 14.7626V21.4487C37.1972 21.7011 36.9862 21.9051 36.7236 21.9051Z" fill="#909399"/>
<path d="M82.1548 8.15247C85.8021 8.15247 87.7762 11.2847 87.7762 15.2673C87.7762 19.1151 85.5947 22.1678 82.1548 22.1678C78.5732 22.1678 76.6233 19.0356 76.6233 15.1325C76.6233 11.2051 78.5974 8.15247 82.1548 8.15247ZM82.1756 10.7281C80.364 10.7281 80.2499 13.1965 80.2499 14.7349C80.2499 16.2768 80.2257 19.568 82.1548 19.568C84.0597 19.568 84.1495 16.9129 84.1495 15.295C84.1495 14.2302 84.1047 12.9579 83.7831 11.9484C83.5065 11.0703 82.9569 10.7281 82.1756 10.7281Z" fill="#909399"/>
<path d="M92.5053 21.9051H90.0575C89.8121 21.8878 89.6151 21.6907 89.6151 21.4487L89.6116 8.83007C89.6324 8.59844 89.8364 8.41867 90.0852 8.41867H92.3635C92.5778 8.42903 92.7543 8.57424 92.8026 8.7713V10.7004H92.8475C93.5356 8.97527 94.5001 8.15247 96.1976 8.15247C97.3004 8.15247 98.3755 8.55004 99.067 9.63905C99.71 10.6485 99.71 12.346 99.71 13.5664V21.5075C99.6823 21.7288 99.4783 21.9051 99.2364 21.9051H96.7713C96.5466 21.8878 96.3601 21.7218 96.3358 21.5075V14.6554C96.3358 13.276 96.4948 11.257 94.7974 11.257C94.1993 11.257 93.6496 11.658 93.3765 12.2665C93.0308 13.0374 92.9858 13.8049 92.9858 14.6554V21.4487C92.9824 21.7011 92.768 21.9051 92.5053 21.9051Z" fill="#909399"/>
<path d="M59.7548 15.8791V15.3467C57.9778 15.3467 56.1006 15.727 56.1006 17.8221C56.1006 18.8834 56.6502 19.6025 57.594 19.6025C58.2855 19.6025 58.9043 19.1773 59.295 18.4858C59.779 17.6354 59.7548 16.8368 59.7548 15.8791ZM62.2335 21.8704C62.0711 22.0156 61.836 22.026 61.6528 21.9292C60.8369 21.2515 60.6916 20.937 60.2422 20.2905C58.894 21.6664 57.9398 22.0778 56.1904 22.0778C54.123 22.0778 52.512 20.8021 52.512 18.2473C52.512 16.2525 53.5941 14.8938 55.1326 14.2301C56.4671 13.6423 58.3304 13.5386 59.7548 13.3761V13.0581C59.7548 12.4738 59.7998 11.7824 59.4575 11.2776C59.1567 10.8248 58.5828 10.6381 58.0781 10.6381C57.1412 10.6381 56.3045 11.1186 56.1006 12.1143C56.0591 12.3355 55.8966 12.5533 55.6753 12.5637L53.2899 12.3079C53.0894 12.2629 52.8681 12.1005 52.9234 11.7928C53.4731 8.90258 56.0832 8.03137 58.4203 8.03137C59.6165 8.03137 61.1791 8.34943 62.1229 9.25521C63.3191 10.3719 63.205 11.8619 63.205 13.4833V17.3139C63.205 18.4651 63.6821 18.9698 64.1315 19.5921C64.2906 19.8134 64.3251 20.0796 64.1247 20.2455C63.6233 20.6639 62.7313 21.4417 62.2405 21.8774L62.2335 21.8704Z" fill="#909399"/>
<path d="M27.5311 15.8791V15.3467C25.7541 15.3467 23.8769 15.727 23.8769 17.8221C23.8769 18.8834 24.4266 19.6025 25.3704 19.6025C26.0618 19.6025 26.6806 19.1773 27.0713 18.4858C27.5553 17.6354 27.5311 16.8368 27.5311 15.8791ZM30.0099 21.8704C29.8474 22.0156 29.6123 22.026 29.4291 21.9292C28.6132 21.2515 28.468 20.937 28.0186 20.2905C26.6703 21.6664 25.7161 22.0778 23.9668 22.0778C21.8994 22.0778 20.2883 20.8021 20.2883 18.2473C20.2883 16.2525 21.3704 14.8938 22.9089 14.2301C24.2433 13.6423 26.1067 13.5386 27.5311 13.3761V13.0581C27.5311 12.4738 27.576 11.7824 27.2338 11.2776C26.933 10.8248 26.3591 10.6381 25.8544 10.6381C24.9175 10.6381 24.0808 11.1186 23.8769 12.1143C23.8354 12.3355 23.6729 12.5533 23.4516 12.5637L21.0662 12.3079C20.8657 12.2629 20.6444 12.1005 20.6997 11.7928C21.2494 8.90258 23.8596 8.03137 26.1966 8.03137C27.3928 8.03137 28.9554 8.34943 29.8993 9.25521C31.0954 10.3719 30.9813 11.8619 30.9813 13.4833V17.3139C30.9813 18.4651 31.4584 18.9698 31.9079 19.5921C32.0669 19.8134 32.1015 20.0796 31.9009 20.2455C31.3997 20.6639 30.5077 21.4417 30.0168 21.8774L30.0099 21.8704Z" fill="#909399"/>
</g>
</g>
<defs>
<clipPath id="clip0_18_4116">
<rect width="79.5165" height="24" fill="white" transform="translate(20.2417 8)"/>
</clipPath>
</defs>
</svg>
