<svg width="24" height="24" viewBox="0 0 24 24" fill="none" xmlns="http://www.w3.org/2000/svg">
<path fill-rule="evenodd" clip-rule="evenodd" d="M6.1014 2C3.84551 2 2 3.84578 2 6.10207V6.10207V17.8985C2 20.1545 3.84551 22 6.1014 22V22H17.8985C20.1426 22 21.9812 20.1733 22 17.9332V17.9332V6.06749C21.9812 3.82695 20.1426 2 17.8985 2V2H6.1014Z" fill="url(#paint0_linear_184_30)"/>
<path fill-rule="evenodd" clip-rule="evenodd" d="M20.087 13.9065C20.087 11.6584 17.9006 9.83936 15.2039 9.83936C12.5071 9.83936 10.3208 11.6584 10.3208 13.9065C10.3208 16.1465 12.5071 17.9656 15.2039 17.9737C15.761 17.9656 16.2991 17.8861 16.8056 17.7391C16.8431 17.729 16.84 17.7295 16.9383 17.7102C17.0366 17.6909 17.122 17.7391 17.1962 17.7782L18.251 18.4039C18.2995 18.4299 18.3282 18.443 18.3682 18.443C18.4537 18.443 18.5263 18.3702 18.5244 18.2866C18.5263 18.2403 18.5116 18.2036 18.5001 18.1649C18.4887 18.1262 18.3578 17.6491 18.29 17.348C18.2804 17.3053 18.2752 17.2808 18.2752 17.2001C18.2752 17.1194 18.3169 17.0327 18.4072 16.9569C19.4291 16.2288 20.087 15.1266 20.087 13.9065ZM13.5444 13.2024C13.2182 13.2024 12.9383 12.9224 12.9383 12.5578C12.9383 12.2312 13.2182 11.951 13.5444 11.951C13.9087 11.951 14.1883 12.2312 14.1883 12.5578C14.1883 12.9224 13.9087 13.2024 13.5444 13.2024M16.7865 13.2024C16.4604 13.2024 16.1804 12.9224 16.1804 12.5578C16.1804 12.2312 16.4604 11.951 16.7865 11.951C17.1508 11.951 17.4305 12.2312 17.4305 12.5578C17.4305 12.9224 17.1508 13.2024 16.7865 13.2024" fill="white"/>
<path fill-rule="evenodd" clip-rule="evenodd" d="M3.87549 10.2299C3.87549 11.6866 4.66443 13.0089 5.90686 13.906C5.99837 13.9734 6.04734 14.0506 6.04731 14.1801C6.04734 14.2248 6.03949 14.2729 6.02405 14.3362C5.92019 14.7617 5.8061 15.2487 5.78966 15.3139C5.77323 15.3791 5.74733 15.4226 5.7506 15.4703C5.74733 15.5786 5.83454 15.6659 5.94592 15.6659C5.98486 15.6659 6.01955 15.65 6.06312 15.6267L7.35226 14.8837C7.43388 14.8343 7.52549 14.8088 7.58733 14.8088C7.64917 14.8088 7.75239 14.828 7.82103 14.8446C8.4187 14.9975 9.064 15.0931 9.73521 15.0792C9.84027 15.0931 9.9474 15.0904 10.0477 15.0792C9.92678 14.7051 9.85726 14.3046 9.85241 13.906C9.85726 11.4347 12.2486 9.44362 15.2043 9.44777C15.3056 9.44362 15.4113 9.44696 15.5168 9.44777C15.0757 7.12283 12.6542 5.34149 9.73521 5.34149C6.49768 5.34149 3.87549 7.52464 3.87549 10.2299ZM7.7427 9.4475C7.31114 9.4475 6.9614 9.09742 6.9614 8.66536C6.9614 8.23343 7.31114 7.88321 7.7427 7.88321C8.17426 7.88321 8.52399 8.23343 8.52399 8.66536C8.52399 9.09742 8.17426 9.4475 7.7427 9.4475M11.6492 9.4475C11.2176 9.4475 10.8679 9.09742 10.8679 8.66536C10.8679 8.23343 11.2176 7.88321 11.6492 7.88321C12.0807 7.88321 12.4305 8.23343 12.4305 8.66536C12.4305 9.09742 12.0807 9.4475 11.6492 9.4475" fill="white"/>
<defs>
<linearGradient id="paint0_linear_184_30" x1="2" y1="2" x2="2" y2="22" gradientUnits="userSpaceOnUse">
<stop stop-color="#20D329"/>
<stop offset="1" stop-color="#1BB623"/>
</linearGradient>
</defs>
</svg>
